<svg xmlns="http://www.w3.org/2000/svg" xmlns:xlink="http://www.w3.org/1999/xlink" width="18" height="18" viewBox="0 0 18 18"><defs><style>.a{fill:#fff;stroke:#707070;}.b{clip-path:url(#a);}.c,.e{fill:#822178;}.c{stroke:#fff;stroke-width:0.3px;fill-rule:evenodd;}.d{fill:#fca32b;}</style><clipPath id="a"><rect class="a" width="18" height="18"/></clipPath></defs><g class="b"><g transform="translate(0.128)"><path class="c" d="M14.365,2.141H2.608A2.611,2.611,0,0,0,0,4.749V15.225a2.611,2.611,0,0,0,2.608,2.608H14.365a2.611,2.611,0,0,0,2.608-2.608V4.749a2.611,2.611,0,0,0-2.608-2.608Zm1.583,13.084a1.585,1.585,0,0,1-1.583,1.583H2.608a1.585,1.585,0,0,1-1.583-1.583V7.265H15.948Zm0-8.985H1.025V4.749A1.585,1.585,0,0,1,2.608,3.166H14.365a1.585,1.585,0,0,1,1.583,1.583Z" transform="translate(0 -0.604)"/><circle class="d" cx="0.512" cy="0.512" r="0.512" transform="translate(2.722 7.974)"/><circle class="e" cx="0.512" cy="0.512" r="0.512" transform="translate(5.348 7.974)"/><circle class="d" cx="0.512" cy="0.512" r="0.512" transform="translate(7.974 7.974)"/><circle class="d" cx="0.512" cy="0.512" r="0.512" transform="translate(10.6 7.974)"/><circle class="d" cx="0.512" cy="0.512" r="0.512" transform="translate(13.226 7.974)"/><circle class="e" cx="0.512" cy="0.512" r="0.512" transform="translate(2.722 10.6)"/><circle class="e" cx="0.512" cy="0.512" r="0.512" transform="translate(7.974 10.6)"/><circle class="d" cx="0.512" cy="0.512" r="0.512" transform="translate(10.6 10.6)"/><circle class="d" cx="0.512" cy="0.512" r="0.512" transform="translate(13.226 10.6)"/><rect class="d" width="2.882" height="2.882" rx="0.892" transform="translate(4.483 9.671)"/><circle class="d" cx="0.512" cy="0.512" r="0.512" transform="translate(2.722 13.226)"/><circle class="e" cx="0.512" cy="0.512" r="0.512" transform="translate(5.348 13.226)"/><circle class="d" cx="0.512" cy="0.512" r="0.512" transform="translate(7.974 13.226)"/><circle class="d" cx="0.512" cy="0.512" r="0.512" transform="translate(10.6 13.226)"/><circle class="d" cx="0.512" cy="0.512" r="0.512" transform="translate(13.226 13.226)"/><rect class="e" width="0.933" height="4.307" rx="0.467" transform="translate(3.747)"/><rect class="e" width="0.933" height="4.307" rx="0.467" transform="translate(7.974)"/><rect class="e" width="0.933" height="4.307" rx="0.467" transform="translate(12.201)"/></g></g></svg>