<svg xmlns="http://www.w3.org/2000/svg" width="20" height="20" viewBox="0 0 20 20"><defs><style>.a{fill:#fff;}.b{fill:#4e90ff;}.c,.d{stroke:none;}.d{fill:#4e90ff;}</style></defs><g transform="translate(5.333 -2.941)"><circle class="a" cx="10" cy="10" r="10" transform="translate(-5.333 2.941)"/><g transform="translate(0.535 10.264)"><g transform="translate(-0.868 -2.323)"><g class="b"><path class="c" d="M 8.903260231018066 9.804977416992188 C 3.925060033798218 9.804977416992188 -0.1249998509883881 5.754917621612549 -0.1249998509883881 0.7767177820205688 C -0.1249998509883881 0.2795077562332153 0.2795101404190063 -0.1250022500753403 0.7767201662063599 -0.1250022500753403 L 2.554430246353149 -0.1250022500753403 C 2.794960260391235 -0.1250022500753403 3.021320104598999 -0.03111224435269833 3.191800117492676 0.1393777579069138 C 3.362280130386353 0.3098677694797516 3.456160068511963 0.5362377762794495 3.456150054931641 0.7767777442932129 C 3.456150054931641 1.35596776008606 3.54688024520874 1.924447774887085 3.725830078125 2.466437816619873 C 3.828005075454712 2.791861534118652 3.744867324829102 3.140475988388062 3.509438037872314 3.380323171615601 L 2.765104055404663 4.369763374328613 C 3.39449143409729 5.530979633331299 4.140039920806885 6.276269435882568 5.310288429260254 6.914163589477539 L 6.32767391204834 6.146149158477783 C 6.477296829223633 5.997809886932373 6.695185661315918 5.912927627563477 6.927210330963135 5.912927627563477 C 7.027210235595703 5.912927627563477 7.124910354614258 5.928957939147949 7.217610359191895 5.960567951202393 C 7.75583028793335 6.138427734375 8.32334041595459 6.228797912597656 8.903260231018066 6.228797912597656 C 9.400460243225098 6.228797912597656 9.804980278015137 6.633297920227051 9.805000305175781 7.130497932434082 L 9.805000305175781 8.903237342834473 C 9.805000305175781 9.400457382202148 9.400480270385742 9.804977416992188 8.903260231018066 9.804977416992188 Z M 0.7767401337623596 0.662797749042511 C 0.7139101624488831 0.662797749042511 0.6627901792526245 0.713907778263092 0.6627901792526245 0.7767377495765686 C 0.6627901792526245 5.320547580718994 4.359450340270996 9.017208099365234 8.903260231018066 9.017208099365234 C 8.966090202331543 9.017208099365234 9.017210006713867 8.966087341308594 9.017210006713867 8.903257369995117 L 9.017210006713867 7.130537986755371 C 9.017210006713867 7.067707538604736 8.966090202331543 7.016587734222412 8.903260231018066 7.016587734222412 C 8.23960018157959 7.016587734222412 7.588010311126709 6.9125075340271 6.966599941253662 6.707247734069824 C 6.954020023345947 6.702977657318115 6.942009925842285 6.700987815856934 6.92982006072998 6.700987815856934 C 6.900190353393555 6.700987815856934 6.871280193328857 6.712897777557373 6.850510120391846 6.733667850494385 L 6.84443998336792 6.739727973937988 L 6.837600231170654 6.744917869567871 L 5.585330009460449 7.693627834320068 C 5.517020225524902 7.745187759399414 5.432539939880371 7.773507595062256 5.347270011901855 7.773507595062256 C 5.284640312194824 7.773507595062256 5.222400188446045 7.758267879486084 5.16726016998291 7.729427814483643 C 3.649290084838867 6.951627731323242 2.716730117797852 6.018947601318359 1.949370145797729 4.510657787322998 C 1.88070011138916 4.375297546386719 1.894830107688904 4.216027736663818 1.986170172691345 4.09487771987915 L 2.910540103912354 2.870667695999146 L 2.915010213851929 2.864747762680054 L 2.9201500415802 2.859397649765015 C 2.99810004234314 2.778247833251953 2.982630252838135 2.7286376953125 2.976030111312866 2.707457780838013 C 2.772120237350464 2.09038782119751 2.668400049209595 1.440117716789246 2.668400049209595 0.7767377495765686 C 2.668400049209595 0.713907778263092 2.617280244827271 0.662797749042511 2.554450035095215 0.662797749042511 L 0.7767401337623596 0.662797749042511 Z"/><path class="d" d="M 8.903260231018066 9.679977416992188 C 9.331550598144531 9.679977416992188 9.680000305175781 9.331518173217773 9.680000305175781 8.903237342834473 L 9.680000305175781 7.130507946014404 C 9.679980278015137 6.702247619628906 9.331520080566406 6.353797912597656 8.903260231018066 6.353797912597656 C 8.310609817504883 6.353797912597656 7.728700160980225 6.261107921600342 7.17726993560791 6.078877925872803 C 6.902349948883057 5.985127925872803 6.589339733123779 6.057878017425537 6.409980297088623 6.24063777923584 L 5.321569919586182 7.062267780303955 C 4.059309959411621 6.388477802276611 3.281790256500244 5.611207962036133 2.617200136184692 4.358437538146973 L 3.414660215377808 3.298377752304077 C 3.621850252151489 3.09146785736084 3.696160078048706 2.789217710494995 3.60713005065918 2.505627870559692 C 3.424110174179077 1.951297760009766 3.331150054931641 1.369667768478394 3.331150054931641 0.7767677307128906 C 3.331170082092285 0.3484577536582947 2.982720136642456 -2.2451781660493e-06 2.554430246353149 -2.2451781660493e-06 L 0.7767201662063599 -2.2451781660493e-06 C 0.3484501540660858 -2.2451781660493e-06 1.525878872143949e-07 0.3484577536582947 1.525878872143949e-07 0.7767177820205688 C 1.525878872143949e-07 5.686047554016113 3.993950128555298 9.679977416992188 8.903260231018066 9.679977416992188 M 0.7767401337623596 0.537797749042511 L 2.554450035095215 0.537797749042511 C 2.686270236968994 0.537797749042511 2.793400049209595 0.6449277400970459 2.793400049209595 0.7767377495765686 C 2.793400049209595 1.427167773246765 2.89555025100708 2.065517663955688 3.095370054244995 2.670257806777954 C 3.123200178146362 2.759547710418701 3.100620269775391 2.85195779800415 3.010300159454346 2.945987701416016 L 2.085980176925659 4.170127868652344 C 2.024020195007324 4.252307891845703 2.01429009437561 4.362337589263916 2.060780048370361 4.453977584838867 C 2.815180063247681 5.936797618865967 3.731880187988281 6.853497982025146 5.225200176239014 7.618667602539062 C 5.316050052642822 7.66618824005127 5.427390575408936 7.656227588653564 5.509850025177002 7.593987941741943 L 6.762120246887207 6.645277976989746 C 6.825389862060547 6.582006931304932 6.920199871063232 6.559417247772217 7.005810260772705 6.588557720184326 C 7.614740371704102 6.789697647094727 8.253089904785156 6.891587734222412 8.903260231018066 6.891587734222412 C 9.035070419311523 6.891587734222412 9.142210006713867 6.998717784881592 9.142210006713867 7.130537986755371 L 9.142210006713867 8.903257369995117 C 9.142210006713867 9.035067558288574 9.035070419311523 9.142208099365234 8.903260231018066 9.142208099365234 C 4.29040002822876 9.142208099365234 0.5377901792526245 5.389577865600586 0.5377901792526245 0.7767377495765686 C 0.5377901792526245 0.6449277400970459 0.6449301242828369 0.537797749042511 0.7767401337623596 0.537797749042511 M 8.903260231018066 9.929977416992188 C 3.85614013671875 9.929977416992188 -0.2499998509883881 5.823837757110596 -0.2499998509883881 0.7767177820205688 C -0.2499998509883881 0.2105777561664581 0.2105801552534103 -0.2500022351741791 0.7767201662063599 -0.2500022351741791 L 2.554430246353149 -0.2500022351741791 C 2.828350067138672 -0.2500022351741791 3.086100101470947 -0.1431022435426712 3.280190229415894 0.05099775642156601 C 3.474280118942261 0.2450977563858032 3.581160068511963 0.5028477311134338 3.581150054931641 0.7767777442932129 C 3.581150054931641 1.342627763748169 3.669760227203369 1.897927761077881 3.84453010559082 2.427247762680054 C 3.960289716720581 2.795893907546997 3.867869138717651 3.189205884933472 3.604519128799438 3.46185564994812 L 2.913503885269165 4.380419254302979 C 3.509640693664551 5.455535888671875 4.216117858886719 6.161709308624268 5.299667835235596 6.765570163726807 L 6.245842933654785 6.051311492919922 C 6.418483734130859 5.883677959442139 6.665555477142334 5.787927627563477 6.927210330963135 5.787927627563477 C 7.040980339050293 5.787927627563477 7.152260303497314 5.806207656860352 7.257970333099365 5.842257976531982 C 7.782380104064941 6.015547752380371 8.336689949035645 6.103797912597656 8.903260231018066 6.103797912597656 C 9.469380378723145 6.103797912597656 9.929969787597656 6.564367771148682 9.930000305175781 7.130497932434082 L 9.930000305175781 8.903237342834473 C 9.930000305175781 9.469388008117676 9.469409942626953 9.929977416992188 8.903260231018066 9.929977416992188 Z M 0.7877981662750244 0.787797749042511 C 0.7940075397491455 5.25388765335083 4.426018238067627 8.886433601379395 8.892210006713867 8.892199516296387 L 8.892210006713867 7.141577243804932 C 8.221035003662109 7.140433311462402 7.562048435211182 7.034899234771729 6.933127403259277 6.827825546264648 L 6.913090229034424 6.844547748565674 L 5.660820007324219 7.793257713317871 C 5.504422187805176 7.911307334899902 5.281276226043701 7.930126190185547 5.109340190887451 7.840197563171387 C 3.566680192947388 7.049757957458496 2.618360042572021 6.10126781463623 1.837960124015808 4.567337989807129 C 1.747460126876831 4.388957977294922 1.76606011390686 4.179177761077881 1.886360168457031 4.019627571105957 L 2.830000162124634 2.772807836532593 C 2.845370531082153 2.756810426712036 2.852320194244385 2.745895862579346 2.855256080627441 2.740363121032715 C 2.649813890457153 2.116908073425293 2.544551372528076 1.458973288536072 2.543410778045654 0.787797749042511 L 0.7877981662750244 0.787797749042511 Z"/></g></g></g></g></svg>