<svg xmlns="http://www.w3.org/2000/svg" xmlns:xlink="http://www.w3.org/1999/xlink" width="46" height="46" viewBox="0 0 46 46"><defs><style>.a{fill:url(#a);}</style><linearGradient id="a" x1="0.5" x2="0.5" y2="1" gradientUnits="objectBoundingBox"><stop offset="0" stop-color="#acc8ff"/><stop offset="1" stop-color="#4e90ff"/></linearGradient></defs><path class="a" d="M26.375,3.375a23,23,0,1,0,23,23A23,23,0,0,0,26.375,3.375ZM32.2,34.7l-5.827-5.827L20.548,34.7a1.767,1.767,0,1,1-2.5-2.5l5.827-5.827-5.827-5.827a1.767,1.767,0,1,1,2.5-2.5l5.827,5.827L32.2,18.049a1.767,1.767,0,1,1,2.5,2.5l-5.827,5.827L34.7,32.2a1.775,1.775,0,0,1,0,2.5A1.755,1.755,0,0,1,32.2,34.7Z" transform="translate(-3.375 -3.375)"/></svg>