<svg xmlns="http://www.w3.org/2000/svg" width="15.122" height="24" viewBox="0 0 15.122 24"><defs><style>.a{fill:#ccc;}</style></defs><g transform="translate(-10.08 -0.36)"><path class="a" d="M19.44,3.33A2.97,2.97,0,1,1,16.47.36a2.97,2.97,0,0,1,2.97,2.97Z"/><path class="a" d="M15.84,7.2H13.68c-2.03,0-3.6.756-3.6,2.018V14.68c0,.88,2.16.88,2.16,0V9.4h.72V23.48c0,.543.553.88,1.44.88s1.44-.337,1.44-.88Zm9.36,6.6L22.308,9.243C22.056,8.222,20.369,7.2,18.443,7.2H16.56V17.665c.36,0,.72.033.72.1v5.72c0,.458.66.88,1.44.88s1.44-.423,1.44-.88V17.76h2.786c.261,0,.752-.288.752-.44a3.094,3.094,0,0,0,0-.44L19.443,9.736l-.024-.073c0-.1.143-.189.322-.189a.335.335,0,0,1,.313.145l2.892,4.622a2.4,2.4,0,0,0,1.5.44c.695,0,.767-.834.752-.88Z"/></g></svg>