<svg xmlns="http://www.w3.org/2000/svg" width="20" height="20" viewBox="0 0 20 20"><defs><style>.a{fill:#fff;}.b{fill:#4e90ff;stroke:#4e90ff;stroke-width:0.5px;}</style></defs><g transform="translate(31.333 -5.486)"><circle class="a" cx="10" cy="10" r="10" transform="translate(-31.333 5.486)"/><g transform="translate(-26.333 -72.846)"><g transform="translate(0 85.333)"><g transform="translate(0 0)"><path class="b" d="M9.369,86.064a.34.34,0,0,0-.331-.015l-2.23,1.115v-.811a1.021,1.021,0,0,0-1.021-1.021H1.021A1.021,1.021,0,0,0,0,86.354v4.084a1.021,1.021,0,0,0,1.021,1.021H5.786a1.021,1.021,0,0,0,1.021-1.021v-.811l2.23,1.117a.34.34,0,0,0,.493-.306V86.354A.34.34,0,0,0,9.369,86.064ZM6.126,90.438a.34.34,0,0,1-.34.34H1.021a.34.34,0,0,1-.34-.34V86.354a.34.34,0,0,1,.34-.34H5.786a.34.34,0,0,1,.34.34v4.084Zm2.723-.551L6.807,88.867v-.941L8.849,86.9Z" transform="translate(0 -85.333)"/></g></g></g></g></svg>