<svg xmlns="http://www.w3.org/2000/svg" xmlns:xlink="http://www.w3.org/1999/xlink" width="667.715" height="523" viewBox="0 0 667.715 523"><defs><style>.a,.aa,.ab,.t,.w,.z{fill:none;}.b{clip-path:url(#a);}.c{fill:#fee;}.d{fill:#f95d5d;}.e{fill:#eb5d5d;}.f{fill:#f33f3f;}.g{fill:#fff;}.h{fill:#ffe9e9;}.i{fill:#ffe5e5;}.j{fill:#ffefef;opacity:0.1;}.k{opacity:0.39;}.l{fill:#ebf1ff;}.m{fill:#1b173d;}.n{fill:#ffa689;}.o{fill:#4764cf;}.p{fill:#5172ed;}.q{fill:#271f50;}.r{fill:#ed8a6d;}.s{fill:#060412;}.t{stroke:#060412;stroke-width:0.942px;}.t,.w{stroke-miterlimit:10;}.u{fill:#171032;}.v{fill:#211d49;}.aa,.ab,.w,.z{stroke:#fff;}.w{stroke-width:0.25px;opacity:0.22;}.x{fill:#2e2c60;}.y{fill:#1c163f;}.aa,.ab,.z{stroke-linecap:round;stroke-linejoin:round;}.z{stroke-width:0.395px;}.aa{stroke-width:0.477px;}.ab{stroke-width:0.436px;}</style><clipPath id="a"><path class="a" d="M968.593,65.663H603.227c-2.428,25.712-19.578,73.462-108.6,99.03-125.743,36.116-186.7,83.57-174.211,167.605S421.237,475.355,541.555,491.861,698.082,576.028,798.2,585.883c82.576,8.129,135.5-1.93,182.519-25.482V76.657C980.721,70.584,975.29,65.663,968.593,65.663Z" transform="translate(-318.817 -65.663)"/></clipPath></defs><g transform="translate(-444.915 -65.663)"><g transform="translate(445.163 65.663)"><g transform="translate(5.563)"><g class="b"><g transform="translate(-216.568 -62.19)"><path class="c" d="M968.593,65.663H603.227c-2.428,25.712-19.578,73.462-108.6,99.03-125.743,36.116-186.7,83.57-174.211,167.605S421.237,475.355,541.555,491.861,698.082,576.028,798.2,585.883c82.576,8.129,135.5-1.93,182.519-25.482V76.657C980.721,70.584,975.29,65.663,968.593,65.663Z" transform="translate(-102.248 -3.473)"/><g transform="translate(344.064 188.674)"><path class="d" d="M600.378,175.434l-65.733,18.5-50.5-27.247a1.187,1.187,0,0,1,.291-2.227h0a47.7,47.7,0,0,1,18.923-1.387Z" transform="translate(-285.104 -115.096)"/><path class="e" d="M490.667,162.7l47.362,25.55,48.6-13.678-90.308-11.5A47.334,47.334,0,0,0,490.667,162.7Z" transform="translate(-278.069 -115.089)"/><path class="e" d="M476.971,205.451l-.837.235a27.275,27.275,0,0,1-18.656-1.423L396.5,176.27a11.72,11.72,0,0,0-8.019-.612l-4.237,1.193a1.263,1.263,0,0,0-.889,1.737l22.05,47.006,3.208,6.766,70.754-19.913Z" transform="translate(-383.241 -105.144)"/><path class="f" d="M529.042,266.342l270.47-76.123a228.129,228.129,0,0,0,44.468-17.694l35.579-18.732a7.489,7.489,0,0,0,1.425-.972h0c4.548-3.956,2.009-10.926-4.243-11.649l-39.83-4.6a61.214,61.214,0,0,0-23.582,1.866L398.364,255.229a4.747,4.747,0,0,0-2.389,1.527h0c-1.947,2.356-.764,5.748,2.323,6.662l7.194,2.128A223.723,223.723,0,0,0,529.042,266.342Z" transform="translate(-371.702 -136.162)"/><path class="g" d="M511.346,257.369,811.24,172.963a252.814,252.814,0,0,0,49.3-19.619l20.135-10.6a7.787,7.787,0,0,0-3.944-1.573l-39.83-4.6a61.214,61.214,0,0,0-23.582,1.866L398.358,255.229a4.747,4.747,0,0,0-2.389,1.527,3.955,3.955,0,0,0-.089,5A248.251,248.251,0,0,0,511.346,257.369Z" transform="translate(-371.696 -136.162)"/><path class="f" d="M614.91,147.724l31.987-9-19.939-2.37-14.542,4.092a3.759,3.759,0,0,0-2.769,4.771h0A4.3,4.3,0,0,0,614.91,147.724Z" transform="translate(-161.771 -136.012)"/><g transform="translate(194.458 20.427)"><path class="f" d="M.993-.015,5.058.094a1.065,1.065,0,0,1,1.061.981l.108,3.75a.932.932,0,0,1-1.006.926L1.157,5.641A1.065,1.065,0,0,1,.1,4.661L-.013.911A.932.932,0,0,1,.993-.015Z" transform="translate(218.093 5.6) rotate(162.75)"/><path class="f" d="M.993-.015,5.058.094a1.065,1.065,0,0,1,1.061.981l.108,3.75a.932.932,0,0,1-1.006.926L1.157,5.641A1.065,1.065,0,0,1,.1,4.661L-.013.911A.932.932,0,0,1,.993-.015Z" transform="matrix(-0.955, 0.296, -0.296, -0.955, 200.555, 10.536)"/><path class="f" d="M.993-.015,5.058.094a1.065,1.065,0,0,1,1.061.981l.108,3.75a.932.932,0,0,1-1.006.926L1.157,5.641A1.065,1.065,0,0,1,.1,4.661L-.013.911A.932.932,0,0,1,.993-.015Z" transform="translate(183.017 15.472) rotate(162.753)"/><path class="f" d="M.993-.015,5.058.094a1.065,1.065,0,0,1,1.061.981l.108,3.75a.932.932,0,0,1-1.006.926L1.157,5.641A1.065,1.065,0,0,1,.1,4.661L-.013.911A.932.932,0,0,1,.993-.015Z" transform="matrix(-0.955, 0.296, -0.296, -0.955, 165.478, 20.408)"/><path class="f" d="M.993-.015,5.058.094a1.065,1.065,0,0,1,1.061.981l.108,3.75a.932.932,0,0,1-1.006.926L1.157,5.641A1.065,1.065,0,0,1,.1,4.661L-.013.911A.932.932,0,0,1,.993-.015Z" transform="translate(147.941 25.344) rotate(162.75)"/><path class="f" d="M.993-.015,5.058.094a1.065,1.065,0,0,1,1.061.981l.108,3.75a.932.932,0,0,1-1.006.926L1.157,5.641A1.065,1.065,0,0,1,.1,4.661L-.013.911A.932.932,0,0,1,.993-.015Z" transform="translate(130.402 30.28) rotate(162.75)"/><path class="f" d="M.993-.015,5.058.094a1.065,1.065,0,0,1,1.061.981l.108,3.75a.932.932,0,0,1-1.006.926L1.156,5.641A1.065,1.065,0,0,1,.1,4.661L-.013.911A.932.932,0,0,1,.993-.015Z" transform="matrix(-0.955, 0.296, -0.296, -0.955, 112.864, 35.217)"/><path class="f" d="M.993-.015,5.058.094a1.065,1.065,0,0,1,1.061.981l.108,3.75a.932.932,0,0,1-1.006.926L1.157,5.641A1.065,1.065,0,0,1,.1,4.661L-.013.911A.932.932,0,0,1,.993-.015Z" transform="matrix(-0.955, 0.296, -0.296, -0.955, 95.326, 40.153)"/><path class="f" d="M.993-.015,5.058.094a1.065,1.065,0,0,1,1.061.981l.108,3.75a.932.932,0,0,1-1.006.926L1.157,5.641A1.065,1.065,0,0,1,.1,4.66L-.013.911A.932.932,0,0,1,.993-.015Z" transform="matrix(-0.955, 0.296, -0.296, -0.955, 77.788, 45.089)"/><path class="f" d="M.993-.015,5.058.094a1.065,1.065,0,0,1,1.061.981l.108,3.75a.932.932,0,0,1-1.006.926L1.157,5.641A1.065,1.065,0,0,1,.1,4.661L-.013.911A.932.932,0,0,1,.993-.015Z" transform="translate(60.25 50.025) rotate(162.75)"/><path class="f" d="M.993-.015,5.058.094a1.065,1.065,0,0,1,1.061.981l.108,3.75a.932.932,0,0,1-1.006.926L1.157,5.641A1.065,1.065,0,0,1,.1,4.661L-.013.911A.932.932,0,0,1,.993-.015Z" transform="translate(42.712 54.961) rotate(162.75)"/><path class="f" d="M.993-.015,5.058.094a1.065,1.065,0,0,1,1.061.981l.108,3.75a.932.932,0,0,1-1.006.926L1.157,5.641A1.065,1.065,0,0,1,.1,4.66L-.013.911A.932.932,0,0,1,.993-.015Z" transform="matrix(-0.955, 0.296, -0.296, -0.955, 25.174, 59.897)"/><path class="f" d="M.993-.015,5.058.094a1.065,1.065,0,0,1,1.061.981l.108,3.75a.932.932,0,0,1-1.006.926L1.156,5.641A1.065,1.065,0,0,1,.1,4.661L-.013.911A.932.932,0,0,1,.993-.015Z" transform="matrix(-0.955, 0.296, -0.296, -0.955, 7.636, 64.833)"/></g><path class="d" d="M625.265,168.18,524.046,196.669l-37.193,73.146c-1.021,2.009,1.065,4.168,3.4,3.511l2.466-.694a49.39,49.39,0,0,0,18.191-9.471Z" transform="translate(-282.064 -110.736)"/><path class="e" d="M497.405,264.449a2.451,2.451,0,0,0-.251,1.272c1.173-.807,2.317-1.654,3.41-2.56L614.923,168.18,534.9,190.7Z" transform="translate(-271.722 -110.736)"/><path class="d" d="M437.788,200.2l-35.625,10.027L388.139,237.8l6.609-1.86Z" transform="translate(-378.445 -85.31)"/></g><g transform="translate(180.361 80.459)"><path class="g" d="M404.552,166.974c2.05-3.436,7.671-5.91,14.3-5.91a25.1,25.1,0,0,1,5.23.549c.807-2.09,2.9-3.893,5.779-5.126,1.769-7.756,13.2-13.747,27.075-13.747,10.463,0,19.545,3.409,24.14,8.409a27.346,27.346,0,0,1,8.625-1.344c9.549,0,17.289,4.483,17.289,10.015a6,6,0,0,1-.158,1.29q.766-.046,1.556-.047c6.632,0,12.252,2.474,14.3,5.91Z" transform="translate(-198.673 -22.723)"/><path class="g" d="M300.521,197.974c2.048-3.436,7.671-5.91,14.3-5.91a25.117,25.117,0,0,1,5.231.549c.807-2.09,2.9-3.893,5.777-5.126,1.769-7.756,13.2-13.747,27.077-13.747,10.463,0,19.545,3.409,24.14,8.409a27.324,27.324,0,0,1,8.623-1.344c9.549,0,17.291,4.483,17.291,10.015a5.88,5.88,0,0,1-.16,1.29q.769-.046,1.556-.047c6.632,0,12.254,2.474,14.3,5.91Z" transform="translate(-300.521 1.895)"/><path class="g" d="M544.138,217.331c2.048-3.438,7.671-5.912,14.3-5.912a25.118,25.118,0,0,1,5.23.549c.808-2.09,2.9-3.891,5.779-5.126,1.769-7.756,13.2-13.745,27.075-13.745,10.463,0,19.545,3.407,24.14,8.407a27.4,27.4,0,0,1,8.623-1.344c9.551,0,17.291,4.484,17.291,10.015a5.9,5.9,0,0,1-.16,1.29q.769-.046,1.557-.047c6.63,0,12.252,2.474,14.3,5.912Z" transform="translate(-62.016 17.267)"/><path class="g" d="M623.873,151.021c-2.08-3.49-7.785-6-14.514-6a25.469,25.469,0,0,0-5.308.558c-.819-2.121-2.947-3.951-5.864-5.2-1.795-7.871-13.4-13.949-27.475-13.949-10.619,0-19.834,3.457-24.5,8.531a27.784,27.784,0,0,0-8.751-1.362c-9.689,0-17.544,4.55-17.544,10.162a5.905,5.905,0,0,0,.162,1.308q-.781-.046-1.579-.047c-6.731,0-12.434,2.51-14.514,6Z" transform="translate(-101.324 -35.677)"/><path class="g" d="M557.363,96.193c1.637-2.743,6.125-4.719,11.421-4.719a20.056,20.056,0,0,1,4.178.438,8.119,8.119,0,0,1,4.613-4.092c1.413-6.193,10.54-10.976,21.619-10.976,8.355,0,15.606,2.722,19.278,6.714a21.835,21.835,0,0,1,6.885-1.073c7.625,0,13.805,3.581,13.805,8a4.725,4.725,0,0,1-.126,1.03q.612-.035,1.241-.036c5.3,0,9.784,1.975,11.421,4.719Z" transform="translate(-49.069 -75.054)"/><path class="g" d="M481.98,84.425c.724-1.216,2.715-2.092,5.062-2.092a8.971,8.971,0,0,1,1.852.194,3.608,3.608,0,0,1,2.046-1.814c.627-2.747,4.674-4.867,9.586-4.867,3.7,0,6.921,1.206,8.547,2.976a9.734,9.734,0,0,1,3.054-.475c3.382,0,6.123,1.588,6.123,3.547a2.072,2.072,0,0,1-.057.456c.182-.011.364-.016.55-.016,2.349,0,4.34.876,5.064,2.092Z" transform="translate(-122.87 -75.846)"/><path class="g" d="M731.713,194.315c-1.86-3.122-6.964-5.368-12.986-5.368a22.7,22.7,0,0,0-4.75.5c-.734-1.9-2.636-3.536-5.248-4.654-1.605-7.044-11.987-12.484-24.585-12.484-9.5,0-17.748,3.095-21.921,7.636a24.84,24.84,0,0,0-7.831-1.22c-8.67,0-15.7,4.071-15.7,9.094a5.387,5.387,0,0,0,.145,1.17q-.7-.04-1.413-.041c-6.022,0-11.126,2.246-12.986,5.368Z" transform="translate(16.598 0.757)"/></g><g transform="translate(193.386 433.918)"><rect class="h" width="791.588" height="128.669" transform="translate(0 47.472)"/><rect class="i" width="791.588" height="27.817"/></g><g transform="translate(0 34.275)"><rect class="j" width="696.652" height="538.253" transform="translate(181.821 27.914)"/><g class="k"><path class="g" d="M311.957,611.843H280.947L683.609,50.1H714.62Z" transform="translate(-139.324 -50.104)"/><path class="g" d="M569.738,611.843H538.727L941.39,50.1H972.4Z" transform="translate(113.048 -50.104)"/><path class="g" d="M583.131,611.843H466.537L869.2,50.1H985.793Z" transform="translate(42.372 -50.104)"/><path class="g" d="M325.978,611.843H209.384L612.047,50.1H728.641Z" transform="translate(-209.384 -50.104)"/></g></g><g transform="translate(129.402)"><rect class="g" width="17.031" height="593.805" transform="translate(226.358)"/><rect class="g" width="17.031" height="593.805" transform="translate(664.502)"/><rect class="g" width="15.807" height="907.89" transform="translate(907.89 147.235) rotate(90)"/></g></g></g></g><g transform="translate(0 169.487)"><g transform="translate(134.765)"><ellipse class="l" cx="132.211" cy="12.886" rx="132.211" ry="12.886" transform="translate(0 327.74)"/><g transform="translate(8.468)"><path class="m" d="M523.959,259.521l-46.95,11.85s12.13,52.637,16.851,71.924c4.832,19.754,2.155,83.28,2.155,83.28h13.424l7.26-83.528Z" transform="translate(-346.074 -99.844)"/><path class="n" d="M505.141,209.527s4.793,16.525,12.524,44.551c0,0,9.967,3.625,36.929,5.529l-.847,8.964s-29.731,5.379-46.129-1.386S477.477,200.457,505.141,209.527Z" transform="translate(-337.479 -135.388)"/><g transform="translate(191.191 100.896)"><path class="o" d="M513.952,255.919,528.011,272.2l22.721-29.584L541.544,224.9Z" transform="translate(-511.481 -224.902)"/><path class="p" d="M512.5,260.339l23.867-31.993,15.385,11.869L529.027,269.8Z" transform="translate(-512.497 -222.499)"/></g><path class="n" d="M538.953,239.428a.758.758,0,0,0-1.155-.4c-.824.526-1.795,1.74-4.112,1.812s-5.339-1.54-6.332-.5c0,0-4.987,6.367.073,12.665C527.427,253.008,542.743,257.005,538.953,239.428Z" transform="translate(-312.467 -114.236)"/><path class="d" d="M500.669,260.455a47.741,47.741,0,0,0,21.729-10.2s-3.466-18.633-8.283-29.869-12.422-21.073-24.789-13.759S480.56,230.727,500.669,260.455Z" transform="translate(-342.468 -138.522)"/><path class="p" d="M469.585,252.784a47.745,47.745,0,0,0,23.118,6.461s9.541-16.375,13.229-28.032,4.35-24.072-9.79-26.605S473.764,217.137,469.585,252.784Z" transform="translate(-351.256 -138.361)"/><path class="q" d="M526.307,263.707s-29.011-9.8-47,6.415a139.706,139.706,0,0,0,13.222,33.45c16.779,30.813,25.362,40.789,25.362,40.789s-18.282,16.272-53.517,56.936c0,0,2.2,8.322,9.3,10.982,0,0,51.632-48.7,67.211-61.684,5.094-4.245,4.056-7.446,2.053-16.839C539.538,317.838,528.294,270.967,526.307,263.707Z" transform="translate(-354.894 -98.972)"/><path class="n" d="M487.081,196.426l-.625,12.733s10,8.235,18.234,7.855l3.8-16.976L485.179,184.2Z" transform="translate(-340.372 -152.415)"/><path class="r" d="M489.13,190.09s5.316,9.918,15.012,12.945l1.593-7.108Z" transform="translate(-337.614 -148.304)"/><g transform="translate(59.213 193.883)"><path class="s" d="M487.305,303.1l-23.7-18a3.028,3.028,0,0,1-.581-4.241h0a3.026,3.026,0,0,1,4.241-.579l23.7,18a3.028,3.028,0,0,1,.581,4.242h0A3.024,3.024,0,0,1,487.305,303.1Z" transform="translate(-415.477 -279.667)"/><line class="t" x1="52.11" y2="68.619" transform="translate(0 7.451)"/><line class="t" x1="52.11" y2="68.619" transform="translate(16.686 20.163)"/></g><path class="u" d="M487.623,210.465s-25.373,1.275-29.441,15.587-3.525,70.566-3.525,70.566,5.35,12.786,22.5,14.433c0,0,8.948,2.065,8.43-16.7S487.623,210.465,487.623,210.465Z" transform="translate(-361.692 -134.083)"/><path class="v" d="M473.808,212.1a17.866,17.866,0,0,0-3.9,5.143c-4.982,10.7-3.443,39.552-5.561,41.872-1.762,1.932-4.754,2.3-7.71,3.106-1.263.346-2.729-.453-2.673-1.681C455.1,235.866,453.187,215.343,473.808,212.1Z" transform="translate(-362.157 -132.942)"/><path class="v" d="M456,243.948s6.826-1.567,8.011.061c1.693,2.326,1.032,28.8-.859,29.526s-8.541.144-8.919-.414C452.813,271.029,451.94,244.8,456,243.948Z" transform="translate(-362.799 -111.187)"/><path class="n" d="M519.356,173.662s7.031,34.207-3.421,38.388-25.719-6.461-29.456-17.294C483.292,185.524,483.627,163.59,519.356,173.662Z" transform="translate(-340.339 -161.577)"/><path class="u" d="M512.655,182.938s2.836,7.266-2.771,8.975a9.138,9.138,0,0,0-5.892,4.751s-.93-7.3-5.907-7.575c-5.413-.3-5.111,7.43-.36,11.232,0,0,0,9.171-7.035,9.171,0,0-15.866-18.2-8.926-29.18-1.019-3.338,3.712-12.281,15.874-13.422s15.652,1.7,24.884-1.165C531.355,162.985,537.17,184.172,512.655,182.938Z" transform="translate(-343.981 -165.481)"/><path class="w" d="M501.853,260.833l31.3,81.3L466.77,405.86" transform="translate(-353.221 -98.928)"/><g transform="translate(0 250.057)"><path class="s" d="M441.847,369.19a7.6,7.6,0,1,1-7.6-7.6A7.6,7.6,0,0,1,441.847,369.19Z" transform="translate(-381.228 -278.661)"/><path class="s" d="M425.171,361.28a7.6,7.6,0,1,1-7.6-7.6A7.6,7.6,0,0,1,425.171,361.28Z" transform="translate(-392.867 -284.182)"/><path class="s" d="M471.549,323.609s2.342,33.954-9.821,52.7-29.9,15.71-29.9,15.71l3.657-5.746S448.3,391.517,455.9,371.5s6.082-40.8,6.082-40.8Z" transform="translate(-377.608 -305.169)"/><path class="u" d="M470.227,317.956a22.188,22.188,0,0,1,13.636,7.96c4.646,5.578-30.176,59.432-38.007,71.386a3.934,3.934,0,0,1-4.314,1.65c-5.607-1.5-18.555-5.515-27.964-12.618C413.578,386.335,449.532,323.247,470.227,317.956Z" transform="translate(-390.347 -309.115)"/><path class="v" d="M482.476,321.843s-28.589-17.206-43.947-2.915c-10.183,9.473-29.82,36.173-37.427,46.7a6.342,6.342,0,0,0,.694,8.25,124.54,124.54,0,0,0,22.449,16.367,2.343,2.343,0,0,0,3.082-.778C433.541,380.046,463.279,335.788,482.476,321.843Z" transform="translate(-399.896 -312.397)"/><path class="x" d="M418.686,331.17a2.675,2.675,0,0,0-3.663.728c-3.64,4.773-12.718,16.711-14.063,18.968-2.635,4.423,8.135,13.762,21.294,20.7,4.116,2.17,9.138-7.249,14.433-14.47,3.5-4.775,6.527-8.967,6.125-10.517-.435-1.664-7.291-3.8-13.553-7.683A117.435,117.435,0,0,1,418.686,331.17Z" transform="translate(-399.432 -300.21)"/><path class="x" d="M474.856,322.195a60.326,60.326,0,0,0-31.244-9.444c-15.564-.241-32.667,26.711-32.667,26.711-2.209,2.841,24.461,18.993,27.432,15.314a288.006,288.006,0,0,1,29.18-30.854C467.959,323.579,471.124,321.028,474.856,322.195Z" transform="translate(-392.276 -312.749)"/><path class="y" d="M420.177,366.8,436.1,342.781a2.1,2.1,0,0,1,2.651-.739l15.587,7.389a1.8,1.8,0,0,1,.73,2.615l-15.436,23.4a3.37,3.37,0,0,1-4.107,1.255l-14.132-5.89A2.715,2.715,0,0,1,420.177,366.8Z" transform="translate(-386.057 -292.445)"/></g><g transform="translate(123.284 58.36)"><path class="e" d="M491.746,199.851s-15.582,2.819-18.117,26.132,0,89.3,0,89.3a41.735,41.735,0,0,0,31.156-2.4c10.655-5.192,17.479-5.478,20.352-6.138a2.559,2.559,0,0,0,2-2.477c.031-2.54.071-7.434.053-14.81-.049-20.6-2.272-55.637-11.145-79.687C516.044,209.765,500.995,200.579,491.746,199.851Z" transform="translate(-472.503 -199.851)"/></g><path class="d" d="M502.26,224.957c-13.013-.65-22.634,4.561-29.745,12.565-.144,27.51,1.114,60.274,1.114,60.274a40.656,40.656,0,0,0,20.247,1.187c-8.278-12.643-8.335-24.25-1.189-38.471C498.405,249.131,502.26,224.957,502.26,224.957Z" transform="translate(-349.219 -124.006)"/><g transform="translate(109.376 62.811)"><path class="u" d="M473.789,224.153s12.368-20.124,21.408-16.725c11.117,4.182,13.375,25.682-3.291,48.188l-8.872,9.395-2.28,8.363s22.615-19.954,27.935-39.338-1.667-27.086-11.4-30.407c-11.972-4.085-17.71,3.207-25.013,13.3Z" transform="translate(-458.755 -202.472)"/><g transform="translate(0 3.185)"><path class="n" d="M477.318,227.478a252.931,252.931,0,0,0-5.067,37.248c-1.066,17.479-1.236,38.994-1.263,45.383a4.1,4.1,0,0,1-1.211,2.927,18.744,18.744,0,0,0-5.391,15.166c.233,2.837,1.47,6.751,8.526,9.008.971.311,3.52,1.379,3.52-3.562s2-8.271,4.024-9.914,4.084,2.693,4.084,6.24,2.375,1.3,2.851-1.219.1-9.266-5.226-16.3c0,0-.1-1.234.571-9.692s2.087-37.087,5.126-44.4,11.787-28.193,11.787-28.193Z" transform="translate(-464.312 -188.205)"/><path class="d" d="M469.585,254.4a59.635,59.635,0,0,0,23.118,4.834s9.541-16.375,13.229-28.032,4.35-24.072-9.79-26.605S473.764,218.757,469.585,254.4Z" transform="translate(-460.632 -204.349)"/></g></g><g transform="translate(147.785 322.995)"><path class="u" d="M489.343,358.051a17.759,17.759,0,0,0-1.91,13.3,2.485,2.485,0,0,0,2.381,1.97h40.345a1.459,1.459,0,0,0,1.387-1.671c-.272-2.3-2.165-6.276-11.741-7.459a14.588,14.588,0,0,1-7.227-2.939c-3.455-2.707-8.707-6.4-10.526-5.374A19.744,19.744,0,0,1,489.343,358.051Z" transform="translate(-486.933 -355.705)"/></g><path class="q" d="M487.529,197.259c-1.435.058-3.693,4.4-3.693,4.4s4.272,3.294,14.662,7.1c4.809,1.759,7.216,4.245,8.325,5.8a.631.631,0,0,0,1.143-.282c.3-2.306.44-6.364-1.815-8.709C506.151,205.567,491.854,201.66,487.529,197.259Z" transform="translate(-341.309 -143.301)"/><g transform="translate(97.996 302.449)"><path class="u" d="M469.3,343.605a17.753,17.753,0,0,0-11.207,7.417,2.483,2.483,0,0,0,.11,3.087l26.823,30.139a1.456,1.456,0,0,0,2.168-.075c1.535-1.727,3.25-5.788-2.231-13.73a14.584,14.584,0,0,1-2.61-7.352c-.273-4.381-1.01-10.757-2.982-11.436A19.744,19.744,0,0,1,469.3,343.605Z" transform="translate(-457.61 -343.605)"/></g><path class="s" d="M474.949,286.887l6.347,4.82-.519,2.825-7.405-3.7Z" transform="translate(-348.613 -80.744)"/></g></g><g transform="translate(0 151.941)"><path class="y" d="M390.42,322.547c0,1.824-9.938,3.3-22.2,3.3s-22.2-1.479-22.2-3.3,9.938-3.3,22.2-3.3S390.42,320.723,390.42,322.547Z" transform="translate(-294.263 -210.099)"/><ellipse class="l" cx="41.697" cy="4.797" rx="41.697" ry="4.797" transform="translate(32.263 182.763)"/><g transform="translate(77.648 52.66)"><path class="e" d="M362.985,351.55s-4.6-13.847,1.273-20.116-3.527-16.837,10.4-22.81,13.439-19.931,25.558-19.99,21.644-5.705,25.6-.35-14.419,7.955-14.458,17.037-1.83,9.95-6.8,15.616c-2.783,3.177-1.487,10.2-7.668,16.993C392.045,343.26,379.294,341.454,362.985,351.55Z" transform="translate(-361.27 -285.978)"/><path class="z" d="M362.28,350.6s5.8-13.9,19.162-21.265,8.648-37.343,43.668-42" transform="translate(-360.566 -285.031)"/></g><g transform="translate(15.52)"><path class="f" d="M391.264,379.788s-2.447-19.807,2.032-35.739-2.849-21.024-15.409-25.138-4.671-17.234-8.407-29.47-13.137,6.773-16.26-9.889-7.879-25.257-11.675-24.546-5.068,4.4-7.785,23.451-15.944,17.65-4.471,32.747,14.4,10.831,8.025,23.936C323.7,363.132,372.445,354.858,391.264,379.788Z" transform="translate(-324.681 -254.965)"/><path class="aa" d="M384.723,379.771s-6.247-33.324-24.264-49.781-29.959-34.054-25.454-75" transform="translate(-318.14 -254.948)"/></g><g transform="translate(0 63.778)"><path class="e" d="M391.369,350.861s-19.557-51.829-33.025-48.553-14.816,3.963-27.084-5.851-21.194.9-11.809,8.755,9.714,8.568.766,17.224,12.4,18.347,31.183,15.428S388.427,346.581,391.369,350.861Z" transform="translate(-315.54 -292.526)"/><path class="ab" d="M391.362,348.7s-9.169-19.265-33.869-24.257-13.154-21.279-41.941-28.82" transform="translate(-315.533 -290.365)"/></g><path class="x" d="M367.9,324.142c-10.271,0-18.888-1.039-21.422-2.449,2.516,3.26,10.587,17.783,15.368,73.627,0,.81,2.71,1.467,6.053,1.467s6.053-.657,6.053-1.467c4.782-55.844,12.854-70.367,15.368-73.627C386.793,323.1,378.174,324.142,367.9,324.142Z" transform="translate(-293.944 -208.391)"/></g></g></g></g></svg>