<svg xmlns="http://www.w3.org/2000/svg" xmlns:xlink="http://www.w3.org/1999/xlink" width="880.325" height="445.974" viewBox="0 0 880.325 445.974"><defs><style>.a{fill:#d6bf5f;}.b{fill:none;}.c{fill:url(#a);}.d{fill:#68bbdd;}.e{fill:#488ac9;}.f{fill:url(#b);}.g{fill:#fcedd6;}.h{fill:#70454e;}.i{fill:#e8ca95;}.j{fill:#f33f3f;}.k{fill:#de3636;}.l{fill:#ff4848;}.m{fill:#f4a34a;}.n{fill:#ef8a37;}.o{fill:#e57c2e;}.p{fill:#6d2641;}.q{fill:#8c3150;}.r{fill:#d13d67;}.s{fill:#e84d73;}.t{fill:#5b363f;}.u{fill:#fff8e9;}.v{fill:#ead5b9;}.w{clip-path:url(#c);}.x{clip-path:url(#d);}.y{fill:#ead371;}.z{fill:#f4df87;}.aa{fill:#d63737;}.ab{fill:#513b40;}.ac{fill:#5b373f;}.ad{fill:#bcb642;}.ae{fill:#aaa139;}.af{fill:#3f2d32;}.ag{fill:#ce3a64;}.ah{fill:#edb22e;}.ai{fill:#ffce33;}.aj{fill:#5e3841;}.ak{fill:#f7e1c6;}.al{fill:#edb984;}.am{fill:#e79b69;}.an{fill:#f4e8d0;}.ao{fill:#a09532;}.ap{fill:#824e5c;}.aq{fill:#d27558;}.ar{fill:#e5cdac;}.as{fill:#fff3de;}.at{fill:#72525b;}.au{fill:#82636d;}.av{fill:#d6bc9d;}.aw{fill:#663e48;}.ax{fill:#ddd6b6;}.ay{fill:#f2ecd1;}.az{fill:#5a4949;}.ba{fill:#473939;}.bb{fill:#443239;}.bc{fill:#f4e9d6;}</style><linearGradient id="a" x1="0.5" x2="0.5" y2="1" gradientUnits="objectBoundingBox"><stop offset="0" stop-color="#fff"/><stop offset="1" stop-color="#d2ebf7"/></linearGradient><linearGradient id="b" x1="0.5" y1="-0.574" x2="0.5" y2="1.426" gradientUnits="objectBoundingBox"><stop offset="0" stop-color="#f7f7f7"/><stop offset="0.098" stop-color="#f1f5f7"/><stop offset="0.224" stop-color="#e1f0f7"/><stop offset="0.367" stop-color="#c6e7f8"/><stop offset="0.522" stop-color="#a0dbf9"/><stop offset="0.686" stop-color="#70ccfb"/><stop offset="0.855" stop-color="#37bafd"/><stop offset="1" stop-color="#00a9ff"/></linearGradient><clipPath id="c"><rect class="a" width="176.296" height="116.23"/></clipPath><clipPath id="d"><rect class="b" width="172.309" height="112.559"/></clipPath></defs><g transform="translate(-243 -286.692)"><g transform="translate(243 463.281)"><rect class="c" width="880" height="65" transform="translate(0 76.719)"/><g transform="translate(581.453 73.181)"><path class="d" d="M654.567,331.895c-1.839.136-3.723.275-5.69.427-34.649,2.665-30.651,10.661-59.969,17.324s-17.324,13.326-34.649,14.659-23.988,2.665-43.977-1.333-37.314,10.661-46.643,10.661-17.324,0-41.312,4-59.969,17.324-59.969,17.324l-4,15.992,296.207,1.162Z" transform="translate(-355.695 -331.895)"/><path class="e" d="M656.232,342.053a132.507,132.507,0,0,0-27.013,7.114c-21.322,8-12.439,13.326-37.314,13.326s-36.427-4.443-54.193-.89-31.1,4.443-48.866,5.331-30.206-1.775-43.532,0a266.416,266.416,0,0,1-32.871,2.665c-8,0-27.543-4.44-37.314-1.775s-17.77,14.214-17.77,14.214H656.232Z" transform="translate(-357.36 -314.979)"/></g><g transform="translate(669.476 58.416)"><g transform="translate(153.415)"><path class="d" d="M453.931,351.78s-2.007-12.9,4.3-20.635c0,0-8.313,6.018-8.886,21.208C449.344,352.353,449.632,354.645,453.931,351.78Z" transform="translate(-445.618 -318.821)"/><path class="d" d="M458.263,341.71s2.868,1.431,3.153,2.721c0,.432,1.29-1.431,1.29-1.431l-.573,2.148s2.58,2.151,2.724,2.724c.285.285,1.575-6.45-3.726-7.74,0,0,2.721-1.287,4.44-.858l.432-2.151.144,1.722s2.865-1.149,4.44-.288c.144-.429-2.58-2.724-5.016-3.153s-5.586,2.292-5.586,2.292a11.336,11.336,0,0,0,1.146-4.872,57.659,57.659,0,0,0-1-6.3,23.924,23.924,0,0,0-2.721,6.162,9.626,9.626,0,0,0-.288,5.013,5.157,5.157,0,0,0-2.865-1.575,7.822,7.822,0,0,0-5.157,1.863,8.322,8.322,0,0,0-1.149,3.438l3.441-1.719.378-.594.624-.981.288,1,3.15.288s-3.438,1.575-4.011,3.723a26.158,26.158,0,0,0-.717,3.441s3.153-3.009,4.155-4.014a3.878,3.878,0,0,1,1.863-1.146v.861Z" transform="translate(-447.946 -326.521)"/></g><g transform="translate(125.43 12.881)"><path class="d" d="M443.431,356.613s-2.007-12.9,4.3-20.635c0,0-8.313,6.018-8.886,21.208C438.844,357.186,439.132,359.478,443.431,356.613Z" transform="translate(-435.118 -323.654)"/><path class="d" d="M447.763,346.544s2.868,1.434,3.153,2.724c0,.429,1.29-1.434,1.29-1.434l-.573,2.151s2.58,2.148,2.724,2.721c.285.288,1.575-6.447-3.726-7.737,0,0,2.721-1.29,4.44-.861l.432-2.148.144,1.719s2.865-1.146,4.44-.288c.144-.429-2.58-2.721-5.016-3.15s-5.586,2.292-5.586,2.292a11.352,11.352,0,0,0,1.146-4.872,57.763,57.763,0,0,0-1-6.306,23.922,23.922,0,0,0-2.721,6.162,9.636,9.636,0,0,0-.288,5.016,5.153,5.153,0,0,0-2.865-1.578,7.836,7.836,0,0,0-5.157,1.863,8.342,8.342,0,0,0-1.149,3.441l3.441-1.719.378-.594.624-.983.288,1,3.15.288s-3.438,1.575-4.011,3.726a26.067,26.067,0,0,0-.717,3.438s3.153-3.009,4.155-4.011a3.851,3.851,0,0,1,1.863-1.146v.858Z" transform="translate(-437.446 -331.354)"/></g><g transform="translate(181.201 2.401)"><path class="d" d="M461.89,342.276s-1.181-7.583,2.527-12.135c0,0-4.888,3.54-5.224,12.474C459.193,342.615,459.361,343.963,461.89,342.276Z" transform="translate(-457.002 -322.894)"/><path class="d" d="M464.437,336.356s1.687.842,1.855,1.6c0,.253.757-.842.757-.842l-.336,1.266s1.516,1.263,1.6,1.6c.168.168.925-3.793-2.191-4.55a5.061,5.061,0,0,1,2.612-.506l.253-1.263.083,1.01s1.687-.674,2.612-.168c.085-.253-1.517-1.6-2.948-1.855s-3.286,1.349-3.286,1.349a6.7,6.7,0,0,0,.674-2.865,33.992,33.992,0,0,0-.592-3.707,14.146,14.146,0,0,0-1.6,3.625,5.681,5.681,0,0,0-.168,2.948,3.015,3.015,0,0,0-1.685-.925,4.581,4.581,0,0,0-3.033,1.1,4.879,4.879,0,0,0-.674,2.02l2.023-1.01.221-.349.368-.578.168.589,1.855.171s-2.023.925-2.361,2.191a15.485,15.485,0,0,0-.421,2.023s1.855-1.77,2.444-2.361a2.29,2.29,0,0,1,1.1-.674v.506Z" transform="translate(-458.371 -327.422)"/></g><g transform="translate(68.813 32.165)"><path class="d" d="M420.947,353.443s1.181-7.585-2.529-12.135c0,0,4.888,3.539,5.227,12.471C423.645,353.779,423.477,355.128,420.947,353.443Z" transform="translate(-412.517 -334.061)"/><path class="d" d="M423.454,347.52s-1.685.842-1.852,1.6c0,.253-.76-.842-.76-.842l.339,1.263s-1.517,1.263-1.6,1.6c-.168.168-.927-3.793,2.191-4.55a5.069,5.069,0,0,0-2.612-.506l-.253-1.263-.085,1.01s-1.684-.674-2.612-.168c-.083-.253,1.517-1.6,2.951-1.855s3.286,1.349,3.286,1.349a6.659,6.659,0,0,1-.674-2.865,34.245,34.245,0,0,1,.589-3.708,14.106,14.106,0,0,1,1.6,3.622,5.653,5.653,0,0,1,.168,2.951,3.04,3.04,0,0,1,1.687-.928,4.618,4.618,0,0,1,3.033,1.1,4.9,4.9,0,0,1,.674,2.023l-2.023-1.01-.221-.349-.368-.578-.171.589-1.852.168s2.023.928,2.359,2.191a15.052,15.052,0,0,1,.421,2.023s-1.852-1.77-2.444-2.359a2.278,2.278,0,0,0-1.1-.674v.506Z" transform="translate(-416.204 -338.589)"/></g><g transform="translate(47.53 28.207)"><path class="d" d="M414.246,355.985s1.5-9.64-3.212-15.424c0,0,6.213,4.5,6.639,15.853C417.673,356.414,417.46,358.128,414.246,355.985Z" transform="translate(-403.53 -331.347)"/><path class="d" d="M417.436,348.461s-2.143,1.072-2.356,2.034c0,.322-.965-1.071-.965-1.071l.429,1.607s-1.93,1.607-2.036,2.036c-.213.213-1.178-4.822,2.785-5.784a6.443,6.443,0,0,0-3.321-.642l-.323-1.607-.107,1.285s-2.143-.858-3.321-.216c-.107-.32,1.93-2.034,3.75-2.356s4.177,1.714,4.177,1.714a8.5,8.5,0,0,1-.856-3.641,43.154,43.154,0,0,1,.749-4.715,17.891,17.891,0,0,1,2.036,4.608,7.192,7.192,0,0,1,.213,3.747,3.851,3.851,0,0,1,2.143-1.178,5.844,5.844,0,0,1,3.857,1.394,6.216,6.216,0,0,1,.856,2.569l-2.569-1.285-.283-.443-.466-.736-.216.749-2.356.216s2.572,1.178,3,2.785a19.344,19.344,0,0,1,.536,2.569s-2.356-2.249-3.105-3a2.916,2.916,0,0,0-1.394-.858v.642Z" transform="translate(-408.219 -337.104)"/></g><g transform="translate(0 37.98)"><path class="d" d="M396.414,359.652s1.5-9.64-3.214-15.424c0,0,6.213,4.5,6.642,15.853C399.842,360.081,399.629,361.8,396.414,359.652Z" transform="translate(-385.698 -335.014)"/><path class="d" d="M399.6,352.125s-2.14,1.071-2.356,2.036c0,.322-.965-1.071-.965-1.071l.429,1.607s-1.927,1.607-2.034,2.036c-.216.213-1.181-4.822,2.785-5.786a6.471,6.471,0,0,0-3.321-.642l-.323-1.607-.107,1.287s-2.143-.858-3.321-.216c-.107-.32,1.927-2.034,3.75-2.356s4.177,1.714,4.177,1.714a8.453,8.453,0,0,1-.856-3.641,43.111,43.111,0,0,1,.749-4.715,18.007,18.007,0,0,1,2.036,4.606,7.2,7.2,0,0,1,.213,3.75,3.85,3.85,0,0,1,2.143-1.178,5.862,5.862,0,0,1,3.857,1.391,6.235,6.235,0,0,1,.856,2.572l-2.569-1.285-.283-.445-.469-.733-.213.749-2.356.213s2.569,1.178,3,2.785a19.349,19.349,0,0,1,.536,2.572s-2.356-2.25-3.108-3a2.876,2.876,0,0,0-1.391-.858v.642Z" transform="translate(-390.385 -340.771)"/></g></g><path class="f" d="M1102.754,428.936c17.547.733,38.625.362,58.077-.388V353.055H280.505v67.671c35.867-.1,91.694,1.418,83.169,12.1-12.423,15.567-43.473,9.73-34.157,27.241s108.686-3.893,99.37,13.618c-1.2,2.262-3.857,4.521-7.565,6.742-5.916,3.543-1.919,9.8,6.265,9.8h661.6c-.247-11.038-66.465-13.39-57.862-22.376,9.316-9.727,124.216-5.837,90.059-15.564S1056.173,426.99,1102.754,428.936Z" transform="translate(-280.505 -220.839)"/></g><g transform="translate(248.578 244.715)"><g transform="translate(512.392 73.993)"><path class="g" d="M609.679,323.018a127.724,127.724,0,0,1,0-235.068V84.432a130.959,130.959,0,0,0,0,242.1Z" transform="translate(-528.686 -84.432)"/><path class="g" d="M773.843,86.744v3.577a127.683,127.683,0,0,1,0,231.462v3.577a130.928,130.928,0,0,0,0-238.617Z" transform="translate(-588.969 -85.001)"/></g><g transform="translate(664.45 362.696)"><path class="h" d="M878.994,544.951l-8.828.456v4.643l8.828-.456Z" transform="translate(-764.712 -486.374)"/><path class="h" d="M845.782,546.879l-8.828.456v4.643l8.828-.456Z" transform="translate(-756.545 -486.848)"/><g transform="translate(81.93 46.388)"><path class="h" d="M869.139,547.789l-4.758-.047.134-13.434a.743.743,0,0,0-.247-.564.8.8,0,0,0-.585-.194l-19.279,2a.758.758,0,0,0-.676.77l.3,11.781-4.755.119-.3-11.781a5.536,5.536,0,0,1,4.942-5.62l19.279-2a5.511,5.511,0,0,1,6.08,5.537Z" transform="translate(-838.971 -528.788)"/></g><path class="i" d="M810.624,471.14a3.866,3.866,0,1,0-3.866,3.866A3.866,3.866,0,0,0,810.624,471.14Z" transform="translate(-748.17 -467.274)"/><path class="i" d="M758.4,478.764a3.866,3.866,0,1,0-3.866,3.866A3.866,3.866,0,0,0,758.4,478.764Z" transform="translate(-735.327 -469.149)"/><path class="j" d="M876.666,547.951l-71.873,4.06,3.862,35.19h68.011Z" transform="translate(-748.637 -487.112)"/><path class="k" d="M836.037,571.73l40.629-1.908V547.951l-71.873,4.06,3.862,35.19h26.989Z" transform="translate(-748.637 -487.112)"/><path class="j" d="M806.3,565.178h71.761V546.535l-73.273,4.307Z" transform="translate(-748.637 -486.764)"/><path class="l" d="M836.457,549.778l-31.664,1.861,1.512,14.336H838.2Z" transform="translate(-748.637 -487.561)"/><path class="m" d="M810.689,472.02l-9.318-1.165-43.965,97.389h61.957Z" transform="translate(-736.985 -468.155)"/><path class="n" d="M794.71,470.776l-57.364,8.719-7.02,88.73h68.011Z" transform="translate(-730.326 -468.135)"/><path class="o" d="M793.576,537.5a89.906,89.906,0,0,1,4.734,30.722h2.059l-3.627-97.449-57.363,8.719-.791,9.992C759.449,486.222,783.291,506.57,793.576,537.5Z" transform="translate(-732.357 -468.135)"/><g transform="translate(15.155 1.354)"><path class="i" d="M774.976,538.668q-.383,0-.772-.025c-20.693-1.339-23.42-48.916-23.78-61.452a2.373,2.373,0,0,1,2.354-2.438h0a2.368,2.368,0,0,1,2.4,2.3c.505,17.494,4.667,55.892,19.331,56.841a6.715,6.715,0,0,0,5.3-2.148c9.57-9.374,10.608-44.645,10.162-60.234a2.371,2.371,0,0,1,2.271-2.441h0a2.367,2.367,0,0,1,2.479,2.3c.279,10.567.557,51.88-11.582,63.771A11.416,11.416,0,0,1,774.976,538.668Z" transform="translate(-750.423 -469.069)"/></g></g><g transform="translate(556.943 316.823)"><path class="p" d="M596.972,426.773l-3.727.38a1.375,1.375,0,0,0-1.235,1.368v2.985a1.375,1.375,0,0,0,1.514,1.368l3.727-.38a1.375,1.375,0,0,0,1.235-1.368V428.14A1.374,1.374,0,0,0,596.972,426.773Z" transform="translate(-588.807 -411.44)"/><path class="p" d="M627.905,423.881l-3.726.38a1.374,1.374,0,0,0-1.235,1.368v2.985a1.375,1.375,0,0,0,1.514,1.368l3.727-.38a1.375,1.375,0,0,0,1.235-1.368v-2.986A1.375,1.375,0,0,0,627.905,423.881Z" transform="translate(-596.414 -410.729)"/><path class="p" d="M596.983,410.427l-3.7.2.531,16.831,3.7-.2Z" transform="translate(-589.122 -407.422)"/><path class="q" d="M622.107,406.445l-33.5,2.514c-1.225.069-1.056,3.061.168,2.992l33.506-2.513C624.033,409.338,623.864,406.346,622.107,406.445Z" transform="translate(-587.763 -406.443)"/><path class="p" d="M628.329,408.242l-3.7.2.531,16.831,3.7-.2Z" transform="translate(-596.829 -406.885)"/></g><path class="r" d="M641.956,424.112l-63.374,4.738a9.184,9.184,0,0,0-8.482,9.72l7.229,118.181H640.6Z" transform="translate(-26.473 -93.964)"/><path class="s" d="M615.8,428.85l26.126-1.953.029-2.785-63.374,4.738a9.184,9.184,0,0,0-8.482,9.72l7.229,118.181h37.22L607.319,438.57A9.184,9.184,0,0,1,615.8,428.85Z" transform="translate(-26.473 -93.964)"/><g transform="translate(542.45 343.559)"><path class="r" d="M601.444,496.619H575.553a4.059,4.059,0,0,1-4.043-3.792L568.553,446.2A4.051,4.051,0,0,1,572.6,441.9h25.891a4.059,4.059,0,0,1,4.042,3.792l2.957,46.624a4.049,4.049,0,0,1-4.042,4.305ZM572.6,443.483a2.463,2.463,0,0,0-2.459,2.62l2.957,46.622a2.47,2.47,0,0,0,2.46,2.308h25.891a2.463,2.463,0,0,0,2.459-2.62l-2.957-46.622a2.469,2.469,0,0,0-2.459-2.308Z" transform="translate(-568.546 -441.897)"/></g><g transform="translate(546.247 401.051)"><path class="r" d="M606.845,577.813H580.954a4.262,4.262,0,0,1-4.07-4.137L573.59,522.83a4.648,4.648,0,0,1,1.066-3.3,3.885,3.885,0,0,1,2.944-1.4h25.891a4.262,4.262,0,0,1,4.07,4.136l3.294,50.846a4.656,4.656,0,0,1-1.066,3.3A3.887,3.887,0,0,1,606.845,577.813Zm-29.234-57.949a2.333,2.333,0,0,0-1.791.848,2.8,2.8,0,0,0-.649,2.01l3.294,50.845a2.593,2.593,0,0,0,2.477,2.516h25.891a2.332,2.332,0,0,0,1.791-.848,2.8,2.8,0,0,0,.648-2.01l-3.295-50.844a2.592,2.592,0,0,0-2.476-2.517Z" transform="translate(-573.58 -518.135)"/></g><g transform="translate(524.142 398.367)"><path class="t" d="M561.522,537.276l-1.768-14.443a3.893,3.893,0,0,0-4.32-3.393l-2.878.339a3.894,3.894,0,0,0-3.4,4.407l1.621,11.56-4.712.66-1.719-12.263a7.957,7.957,0,0,1,6.948-9.006l4.268-.5a7.957,7.957,0,0,1,8.83,6.935l1.853,15.13Z" transform="translate(-544.268 -514.576)"/></g><path class="h" d="M575.891,532.572,524.758,538.7a1.862,1.862,0,0,0-1.63,2.041l4.417,42.677H578.3l-.325-49.008A1.863,1.863,0,0,0,575.891,532.572Z" transform="translate(-14.925 -120.631)"/><path class="t" d="M543.152,563.055c16.2,0,29.341,8.521,29.341,19.032a12.553,12.553,0,0,1-.1,1.33h5.91l-.325-49.008a1.862,1.862,0,0,0-2.084-1.837L524.758,538.7a1.862,1.862,0,0,0-1.63,2.041l2.692,26.017A40.586,40.586,0,0,1,543.152,563.055Z" transform="translate(-14.925 -120.631)"/><path class="g" d="M766.625,69.305H588.009c-6.273,0-11.359,4.755-11.359,10.619V194.478c0,5.865,5.086,10.619,11.359,10.619H766.625c6.273,0,11.359-4.755,11.359-10.619V79.924C777.984,74.06,772.9,69.305,766.625,69.305Z" transform="translate(-28.088 -6.72)"/><path class="u" d="M766.625,69.305H588.009c-6.273,0-11.359,4.755-11.359,10.619V83.1c0-5.865,5.086-10.62,11.359-10.62H766.625c6.273,0,11.359,4.755,11.359,10.62V79.924C777.984,74.06,772.9,69.305,766.625,69.305Z" transform="translate(-28.088 -6.72)"/><path class="v" d="M766.625,241.18H588.009c-6.273,0-11.359-4.755-11.359-10.619v3.568c0,5.865,5.086,10.619,11.359,10.619H766.625c6.273,0,11.359-4.755,11.359-10.619v-3.568C777.984,236.426,772.9,241.18,766.625,241.18Z" transform="translate(-28.088 -46.372)"/><g transform="translate(561.081 72.366)"><rect class="a" width="176.296" height="116.23"/><g class="w"><g transform="translate(-45.041 -81.684)"><rect class="a" width="124.779" height="187.937" transform="translate(224.344 80.22) rotate(90)"/><g transform="translate(0 0)"><g transform="translate(21.322 73.628)"><path class="a" d="M561.8,147.8,720.025,71.593l3.231,7.921L564.538,155.2ZM715.561,78.375,565.946,149.608l.359.968L715.921,79.344Z" transform="translate(-561.798 -71.593)"/></g><g transform="translate(45.442 64.938)"><path class="a" d="M593.782,94.444,655.056,60.07l2.746,7.411-61.274,34.374Zm59.59-29.529L597.859,96.057l.353.953,55.513-31.142Z" transform="translate(-593.782 -60.07)"/></g><g transform="translate(123.603 100.925)"><path class="a" d="M697.43,109.5l6.4-1.7,34.623,123.373-6.4,1.705Zm4.182,2.443-.111.03,32.764,116.753.111-.03Z" transform="translate(-697.43 -107.791)"/></g><g transform="translate(169.973 40.334)"><path class="a" d="M758.919,29.147l6.4-1.7,34.162,121.4-6.395,1.705ZM763.1,31.59l-.111.029,32.3,114.782.112-.03Z" transform="translate(-758.919 -27.443)"/></g><g transform="translate(183.344 131.095)"><path class="a" d="M776.651,185.8,853,147.8l2.566,6.476-76.346,38Zm74.672-33.357-70.478,35.078.045.114,70.478-35.078Z" transform="translate(-776.651 -147.799)"/></g><g transform="translate(141.179 150.374)"><path class="a" d="M720.737,184.049,756.1,173.364l2.4,6.547L723.142,190.6Zm33.624-6.572-29.509,8.915.033.092,29.509-8.915Z" transform="translate(-720.737 -173.364)"/></g><g transform="translate(150.552 173.428)"><path class="a" d="M733.166,222.758l91-18.822,2.593,6.545-91,18.821Zm89.043-14.9L737.7,225.334l.017.046L822.227,207.9Z" transform="translate(-733.166 -203.935)"/></g><g transform="translate(12.152 169.512)"><path class="a" d="M549.638,218.966l136.877-20.224.76,6.983L550.4,225.949Zm134.045-16.32L553.217,221.921l.014.124L683.7,202.769Z" transform="translate(-549.638 -198.742)"/></g><g transform="translate(0 128.946)"><path class="a" d="M533.523,212.562l134.795-67.613,2.566,6.476L536.09,219.039ZM666.649,149.6,537.714,214.274l.045.114,128.936-64.674Z" transform="translate(-533.523 -144.949)"/></g><g transform="translate(136.832 73.542)"><path class="a" d="M714.972,139.094,849.767,71.479l2.567,6.477-134.8,67.613ZM848.1,76.13,719.163,140.8l.045.113L848.143,76.243Z" transform="translate(-714.972 -71.479)"/></g><g transform="translate(18.19 44.26)"><path class="a" d="M557.644,35.75l5.914-3.1L608,122.537l-5.914,3.1Zm4.52,1.476-.1.055,41.424,83.78.1-.055Z" transform="translate(-557.644 -32.649)"/></g><g transform="translate(202.433 107.175)"><path class="a" d="M801.964,119.18l5.914-3.1,46.235,95.072-5.914,3.1Zm4.5,1.486-.1.055,43.255,88.943.1-.055Z" transform="translate(-801.964 -116.079)"/></g><g transform="translate(98.555 145.724)"><path class="a" d="M664.214,170.3l5.914-3.1,45.3,91.266-5.914,3.1Zm4.524,1.474-.1.054L710.9,256.989l.1-.054Z" transform="translate(-664.214 -167.197)"/></g><g transform="translate(21.629)"><path class="a" d="M562.205-22.944l5.914-3.1,45.3,91.265-5.914,3.1Zm4.524,1.474-.1.055,42.268,85.163.1-.054Z" transform="translate(-562.205 26.043)"/></g><g transform="translate(89.746 71.612)"><path class="a" d="M652.533,72.028l5.927-3.108,25.385,71.653-5.927,3.108Zm4.158,1.665-.092.048,23.087,65.167.092-.048Z" transform="translate(-652.533 -68.92)"/></g><g transform="translate(41.759 140.355)"><path class="a" d="M588.9,163.179l5.914-3.1,50.555,101.768-5.914,3.1Zm4.525,1.474-.1.055,47.525,95.666.1-.055Z" transform="translate(-588.898 -160.078)"/></g><g transform="translate(71.632 125.563)"><path class="a" d="M628.512,143.575l5.936-3.112,34.2,106.032-5.936,3.113Zm4.071,1.711-.084.044,32.074,99.454.084-.044Z" transform="translate(-628.512 -140.463)"/></g><g transform="translate(127.098 58.836)"><path class="a" d="M702.064,55.08l5.914-3.1,78.7,156.726-5.914,3.1Zm4.538,1.466-.1.055,75.644,150.637.1-.055Z" transform="translate(-702.064 -51.978)"/></g></g><g transform="translate(2.095 2.286)"><path class="a" d="M724.857,77.555l-1.549-4.182-158.759,75.77,1.549,4.182Z" transform="translate(-543.247 -0.689)"/><path class="a" d="M656.428,67.464l-1.549-4.182L596.485,96.041l1.549,4.182Z" transform="translate(-551.1 1.792)"/><path class="a" d="M733.823,231.471l3.253-.867L703.383,110.541l-3.253.867Z" transform="translate(-576.586 -9.828)"/><path class="a" d="M794.851,149.15l3.253-.867L764.873,30.192l-3.253.867Z" transform="translate(-591.706 9.929)"/><path class="a" d="M854.15,154.172l-1.306-3.295-73.412,36.538,1.306,3.295Z" transform="translate(-596.086 -19.747)"/><path class="a" d="M758.371,178.965l-1.306-3.295L723.66,185.745l1.306,3.295Z" transform="translate(-582.372 -25.843)"/><path class="a" d="M825.234,209.831l-1.306-3.295-87.755,18.15,1.306,3.3Z" transform="translate(-585.449 -33.433)"/><path class="a" d="M686.07,204.884l-.387-3.553L552.011,221.08l.387,3.553Z" transform="translate(-540.164 -32.153)"/><path class="a" d="M669.472,151.327l-1.306-3.295L536.3,214.177l1.306,3.295Z" transform="translate(-536.302 -19.047)"/><path class="a" d="M850.922,77.858l-1.306-3.295L717.751,140.707,719.057,144Z" transform="translate(-580.919 -0.982)"/><path class="a" d="M603.506,124.1l3.009-1.578L563.581,35.683l-3.009,1.578Z" transform="translate(-542.269 8.579)"/><path class="a" d="M849.623,212.706l3.009-1.578-44.745-92.007-3.009,1.578Z" transform="translate(-602.343 -11.938)"/><path class="a" d="M710.927,260.023l3.009-1.578L670.153,170.23l-3.009,1.578Z" transform="translate(-568.475 -24.506)"/><path class="a" d="M608.919,66.781l3.009-1.578L568.145-23.011l-3.009,1.578Z" transform="translate(-543.392 23.011)"/><path class="a" d="M679.465,142.073l3.009-1.578-24.236-68.41-3.009,1.578Z" transform="translate(-565.545 -0.372)"/><path class="a" d="M640.869,263.406l3.009-1.578-49.04-98.717-3.009,1.578Z" transform="translate(-549.955 -22.755)"/><path class="a" d="M664.29,247.982,667.3,246.4,634.166,143.661l-3.009,1.578Z" transform="translate(-559.626 -17.972)"/><path class="a" d="M782.175,210.266l3.009-1.578L708.013,55.008,705,56.585Z" transform="translate(-577.784 3.827)"/></g><path class="a" d="M678.191,173.2l11.143-5.369,7.459,23.968-8.717,1.917Z" transform="translate(-569.096 -21.63)"/><path class="a" d="M695.709,165.384l10.694-5.561,2.067,9.875-10.784,2.684Z" transform="translate(-573.403 -19.66)"/><path class="a" d="M711.371,177.494l3.954,14.86-11.413,1.63-1.887-7.095,7.549-1.438-2.337-7.478Z" transform="translate(-574.957 -24.006)"/><path class="a" d="M725.62,164.985l17.973-8.341,6.291,12.655-7.189,2.3-3.685-8.149-12.222,4.506Z" transform="translate(-580.758 -18.879)"/><path class="a" d="M733.872,172.536l-5.392,1.055,1.618,7.382,7.459-3.26-1.528-3.643h-1.617Z" transform="translate(-581.462 -22.786)"/><path class="a" d="M756.971,186.394l-23.725,7.574,5.661,21.475,5.841-1.342L741.6,198.953l18.243-6.232Z" transform="translate(-582.634 -26.194)"/><path class="a" d="M767.013,199.107l6.74,13.614-18.782,3.931-.989-4.506,13.75-3.356-3.055-8.628Z" transform="translate(-587.732 -29.32)"/><path class="a" d="M780.783,137.066l-18.854,9.559,6.534,13.941,6.627-3.883-3.453-7.468,5.974-2.489,4.294,13.642,4.947-3.286Z" transform="translate(-589.687 -14.065)"/><path class="a" d="M786.374,171.753l4.763-2.013,3.055,10.642-13.929,7-6.38-13.806,4.493-2.205,3.5,7,5.212-2.78Z" transform="translate(-592.626 -22.099)"/><path class="a" d="M803.283,130.583l-4.493,1.917,4.4,15.148,7.01-4.7Z" transform="translate(-598.75 -12.47)"/><path class="a" d="M814.656,154.74l5.482,12.463-10.424,5.752-3.774-16.682,4.224-1.917.809,2.013Z" transform="translate(-600.508 -18.316)"/><path class="a" d="M826.157,118.759l-8.9,4.41,9.077,18.887Z" transform="translate(-603.292 -9.563)"/><path class="a" d="M824.251,97.589l-11.5,5.752-2.876-10.833,15.277-6.04Z" transform="translate(-601.475 -1.623)"/><path class="a" d="M803.593,103.779,792.63,110.01,785.8,82.4l10.065.575L798.2,94.767l3.235-1.726Z" transform="translate(-595.556 -0.622)"/><path class="a" d="M764.539,125.22l14.468-7L773.616,100.2l-7.639,2.972,3.685,9.2-7.1,3.931Z" transform="translate(-589.842 -4.999)"/><path class="a" d="M757.3,124.833,751.011,128l-12.4-26.652,13.929-6.232,2.067,4.41-8.537,4.122,3.145,7,4.943-2.013Z" transform="translate(-583.952 -3.748)"/><path class="a" d="M760.179,90.878l3.235,8.149,8.627-3.643-2.786-8.916Z" transform="translate(-589.256 -1.623)"/><path class="a" d="M721.809,108.589l-11.323,5.465,2.7,9.012,12.042-7.957Z" transform="translate(-577.037 -7.062)"/><path class="a" d="M730.35,119.522l9.522,18.687L730.26,143.2l-2.606-7.19,3.954-2.493-5.392-10.738Z" transform="translate(-580.905 -9.751)"/><path class="a" d="M725.737,145.461l-6.291-18.311-4.314,2.876,5.212,19.078Z" transform="translate(-578.18 -11.626)"/><path class="a" d="M699.97,141.825l-9.975,4.794-6.56-18.407,5.931-2.2,4.493,12.176,4.853-2.3Z" transform="translate(-570.385 -11.345)"/><path class="a" d="M700.634,132.231,697.758,121.3l-4.314,2.205,1.618,4.314,2.157-1.246,1.887,5.56Z" transform="translate(-572.847 -10.188)"/><path class="a" d="M666.751,81.768l4.493,12.176L680.32,90.2,677.175,81Z" transform="translate(-566.283 -0.278)"/><path class="a" d="M674.258,95.413l3.235,11.121,31.183-14.86-5.032-10.546-8.807.575,2.786,6.04-13.57,6.9L682.436,91.1Z" transform="translate(-568.129 -0.31)"/><path class="a" d="M670.888,134.079l6.875,18.839-10.514,4.889-1.213-7.334,5.392-1.87-4.448-12.224Z" transform="translate(-566.107 -13.33)"/><path class="a" d="M658.938,138.274l-17.928,7.909,6.605,19.989,10.919-5.9-1.752-7.19-6.605,2.876-1.483-5.609,12.536-6.04Z" transform="translate(-559.953 -14.362)"/><path class="a" d="M662.915,181.563l-9.571,4.314,4.988,15.1,6.47-1.007-3.909-10.21,5.527-2.3Z" transform="translate(-562.986 -25.006)"/><path class="a" d="M672.131,193.386l4.448,8.628-6.336.719-1.348-8.628Z" transform="translate(-566.81 -27.913)"/><path class="a" d="M697.854,213.853l20.085-2.732,6.336,24.16-7.684-.431-4.179-15.531-5.257.288,1.887,4.314-5.527.288Z" transform="translate(-573.931 -32.274)"/><path class="a" d="M707.506,232.67l6.605.719,3.1,8.485-6.066-.575Z" transform="translate(-576.304 -37.573)"/><path class="a" d="M681.772,216.27l-9.3,1.582,2.561,6.184,3.37-.431,3.909,8.341,7.279-1.007Z" transform="translate(-567.689 -33.54)"/><path class="a" d="M687.486,239.06l6.2-.288,2.426,4.746-8.627-.863Z" transform="translate(-571.382 -39.073)"/><path class="a" d="M630.285,224.1l16.58-2.3,5.527,17.113-6.875-.575-2.831-10.21-4.044.288,4.179,9.779H637.7Z" transform="translate(-557.316 -34.9)"/><path class="a" d="M584.126,231.251l13.749-2.013,3.1,8.053-17.524,1.582Z" transform="translate(-545.8 -36.729)"/><path class="a" d="M607.4,228.387l8.358-1.438,6.875,13.518-7.549-.144-1.752-4.458-4.179.288Z" transform="translate(-551.69 -36.166)"/><path class="a" d="M600.536,211.9l5.8-2.876,2.831,4.6-11.053,1.294Z" transform="translate(-549.404 -31.758)"/><path class="a" d="M620.454,200.579l15.637-7.766,4.583,12.655-5.4.816-2.959-7.431-5.257,1.582,2.988,6.64-6.493.982Z" transform="translate(-554.899 -27.773)"/><path class="a" d="M619.381,159.27l7.279-3.451,4.314,11.5L624.5,170.2l-3.1-8.485-2.022.575Z" transform="translate(-554.635 -18.676)"/><path class="a" d="M627.425,171.918l-13.076,5.752-4.314-11.936-7.279,2.588,9.032,16.825,17.524-8.772Z" transform="translate(-550.547 -21.114)"/><path class="a" d="M582.916,174.713l6.066-2.876,10.11,19.558-15.232,6.759-.674-7.19,6.47-3.164Z" transform="translate(-545.668 -22.614)"/><path class="a" d="M578.063,86.213l13.75,28.33-9.166,5.177-7.953-24.591Z" transform="translate(-543.646 -1.56)"/><path class="a" d="M593.779,126.832l7.684,15.244-24.533,12.08-.27-8.485,13.21-7.19-2.292-9.347Z" transform="translate(-544.13 -11.548)"/><path class="a" d="M607.047,110l11.323,21.571,19.681-9.347-3.235-9.491-14.423,6.184-3.37-7.622,5.257-2.589-2.831-6.471Z" transform="translate(-551.602 -5.499)"/><path class="a" d="M642.523,107.981l2.292,9.2,12.671-5.752L648.723,85.26l-21.3,12.655,1.752,3.451,15.5-6.759,2.966,10.354Z" transform="translate(-556.613 -1.326)"/><path class="a" d="M609.828,88.874,598.37,95.92,591.5,81.827h15.367Z" transform="translate(-547.778 -0.482)"/><path class="a" d="M788.3,199.318l31.183-15.339.09,9.108-23.185,7.574,1.168,2.4,15.547-3.739v4.218l-20.849,4.41Z" transform="translate(-596.172 -25.6)"/><path class="a" d="M822.3,219.957l-22.916,4.506,6.92,14.668,8.987-.384-3.235-10.066,10.514-1.726Z" transform="translate(-598.897 -34.447)"/><path class="a" d="M776.656,228.729l5.392,12.08-12.491-.1-1.528-4.7L749.965,238.7l.809,2.109-5.482-.1-1.8-5.944Z" transform="translate(-585.154 -36.604)"/></g></g></g><g transform="translate(563.074 74.202)"><g class="x" transform="translate(0 0)"><g transform="translate(-44.023 -79.104)"><rect class="y" width="120.837" height="183.687" transform="translate(219.271 77.686) rotate(90)"/><g transform="translate(0 0)"><g transform="translate(20.84 71.303)"><path class="a" d="M565.153,148.166,719.8,74.365l3.157,7.671L567.83,155.328ZM715.439,80.932,569.206,149.915l.351.938L715.79,81.871Z" transform="translate(-565.153 -74.365)"/></g><g transform="translate(44.414 62.888)"><path class="a" d="M596.413,96.495,656.3,63.206l2.683,7.177L599.1,103.671Zm58.243-28.6L600.4,98.056l.345.924L655,68.82Z" transform="translate(-596.413 -63.206)"/></g><g transform="translate(120.809 97.738)"><path class="a" d="M697.718,111.07l6.251-1.65L737.808,228.9l-6.252,1.651Zm4.087,2.366-.108.029L733.721,226.53l.109-.029Z" transform="translate(-697.718 -109.42)"/></g><g transform="translate(166.129 39.06)"><path class="a" d="M757.816,33.26l6.251-1.651,33.39,117.565-6.25,1.651Zm4.09,2.366-.109.028,31.569,111.156.109-.029Z" transform="translate(-757.816 -31.609)"/></g><g transform="translate(179.198 126.955)"><path class="a" d="M775.147,184.962l74.619-36.8,2.509,6.272-74.62,36.8Zm72.984-32.3-68.885,33.97.045.11,68.884-33.97Z" transform="translate(-775.147 -148.164)"/></g><g transform="translate(137.987 145.625)"><path class="a" d="M720.5,183.269l34.568-10.348,2.35,6.341-34.567,10.347Zm32.863-6.365-28.842,8.633.032.089,28.841-8.634Z" transform="translate(-720.498 -172.921)"/></g><g transform="translate(147.148 167.951)"><path class="a" d="M732.646,220.755l88.943-18.228,2.535,6.338-88.944,18.226Zm87.029-14.431-82.6,16.926.017.044,82.6-16.926Z" transform="translate(-732.646 -202.527)"/></g><g transform="translate(11.878 164.158)"><path class="a" d="M553.268,217.082,687.049,197.5l.743,6.763L554.012,223.845Zm131.014-15.8L556.766,219.944l.014.12L684.295,201.4Z" transform="translate(-553.268 -197.497)"/></g><g transform="translate(0 124.873)"><path class="a" d="M537.517,210.881,669.264,145.4l2.508,6.273L540.026,217.153Zm130.116-60.973-126.02,62.632.044.11,126.019-62.632Z" transform="translate(-537.517 -145.403)"/></g><g transform="translate(133.738 71.219)"><path class="a" d="M714.863,139.733,846.61,74.254l2.508,6.273L717.372,146ZM844.978,78.758,718.959,141.39l.044.11L845.023,78.868Z" transform="translate(-714.863 -74.254)"/></g><g transform="translate(17.779 42.862)"><path class="a" d="M561.093,39.653l5.78-3,43.44,87.05-5.78,3Zm4.418,1.43-.1.054L605.9,122.269l.1-.053Z" transform="translate(-561.093 -36.65)"/></g><g transform="translate(197.855 103.791)"><path class="a" d="M799.887,120.449l5.78-3,45.19,92.068-5.78,3Zm4.4,1.44-.1.053,42.277,86.134.1-.054Z" transform="translate(-799.887 -117.446)"/></g><g transform="translate(96.326 141.121)"><path class="a" d="M665.253,169.952l5.779-3,44.274,88.383-5.78,3Zm4.421,1.428-.1.053L710.885,253.9l.1-.053Z" transform="translate(-665.253 -166.949)"/></g><g transform="translate(21.14)"><path class="a" d="M565.55-17.186l5.781-3L615.6,68.195l-5.78,3Zm4.422,1.428-.1.053,41.312,82.474.1-.053Z" transform="translate(-565.55 20.188)"/></g><g transform="translate(87.717 69.351)"><path class="a" d="M653.836,74.786l5.792-3.01,24.811,69.39-5.793,3.01ZM657.9,76.4l-.09.047,22.564,63.109.09-.047Z" transform="translate(-653.836 -71.776)"/></g><g transform="translate(40.814 135.922)"><path class="a" d="M591.639,163.058l5.782-3,49.411,98.553-5.779,3Zm4.424,1.427-.1.053,46.45,92.644.1-.053Z" transform="translate(-591.639 -160.055)"/></g><g transform="translate(70.012 121.597)"><path class="a" d="M630.358,144.072l5.8-3.013,33.421,102.683-5.8,3.015Zm3.979,1.658-.081.042L665.6,242.084l.081-.041Z" transform="translate(-630.358 -141.059)"/></g><g transform="translate(124.224 56.979)"><path class="a" d="M702.247,58.373l5.78-3,76.92,151.775-5.78,3Zm4.435,1.42-.1.054,73.933,145.879.1-.054Z" transform="translate(-702.247 -55.37)"/></g></g><g transform="translate(2.048 2.215)"><path class="g" d="M724.524,80.138l-1.514-4.05L567.841,149.465l1.514,4.05Z" transform="translate(-547.022 -5.7)"/><path class="g" d="M657.643,70.367l-1.514-4.05L599.055,98.04l1.514,4.05Z" transform="translate(-554.697 -3.298)"/><path class="g" d="M733.287,229.192l3.18-.84L703.536,112.082l-3.18.84Z" transform="translate(-579.606 -14.551)"/><path class="g" d="M792.935,149.472l3.18-.84L763.636,34.272l-3.18.84Z" transform="translate(-594.384 4.582)"/><path class="g" d="M850.893,154.335l-1.276-3.191-71.752,35.384,1.276,3.191Z" transform="translate(-598.665 -24.156)"/><path class="g" d="M757.28,178.345,756,175.154l-32.65,9.757,1.276,3.191Z" transform="translate(-585.261 -30.06)"/><path class="g" d="M822.631,208.236l-1.276-3.191-85.77,17.576,1.276,3.191Z" transform="translate(-588.269 -37.41)"/><path class="g" d="M686.614,203.445,686.236,200,555.587,219.13l.378,3.441Z" transform="translate(-544.008 -36.17)"/><path class="g" d="M670.392,151.58l-1.276-3.191L540.233,212.445l1.276,3.191Z" transform="translate(-540.233 -23.479)"/><path class="g" d="M847.738,80.432l-1.276-3.191L717.579,141.3l1.276,3.191Z" transform="translate(-583.841 -5.984)"/><path class="g" d="M605.917,125.208l2.941-1.528L566.9,39.589l-2.941,1.528Z" transform="translate(-546.066 3.275)"/><path class="g" d="M846.468,211.021l2.941-1.528-43.733-89.1-2.941,1.528Z" transform="translate(-604.781 -16.594)"/><path class="g" d="M710.909,256.843l2.941-1.528-42.793-85.428-2.941,1.528Z" transform="translate(-571.679 -28.765)"/><path class="g" d="M611.208,69.705l2.941-1.528L571.356-17.251l-2.941,1.528Z" transform="translate(-547.163 17.251)"/><path class="g" d="M680.158,142.618l2.941-1.528L659.412,74.84l-2.941,1.528Z" transform="translate(-568.815 -5.393)"/><path class="g" d="M642.436,260.118l2.941-1.528-47.931-95.6L594.5,164.52Z" transform="translate(-553.578 -27.069)"/><path class="g" d="M665.327,245.182l2.941-1.528-32.385-99.5-2.941,1.528Z" transform="translate(-563.03 -22.438)"/><path class="g" d="M780.546,208.658l2.941-1.528L708.061,58.3l-2.941,1.528Z" transform="translate(-580.778 -1.327)"/></g><path class="z" d="M678.913,172.763l10.891-5.2,7.29,23.211-8.52,1.857Z" transform="translate(-572.286 -25.979)"/><path class="z" d="M696.035,165.193l10.452-5.385,2.02,9.563-10.54,2.6Z" transform="translate(-576.496 -24.072)"/><path class="z" d="M711.343,176.921l3.865,14.391-11.155,1.578-1.845-6.87,7.378-1.393-2.284-7.242Z" transform="translate(-578.013 -28.28)"/><path class="z" d="M725.27,164.807l17.567-8.077,6.148,12.255-7.027,2.228-3.6-7.892-11.945,4.364Z" transform="translate(-583.684 -23.315)"/><path class="z" d="M733.335,172.119l-5.27,1.021,1.581,7.149,7.29-3.157-1.493-3.528h-1.581Z" transform="translate(-584.372 -27.099)"/><path class="z" d="M755.912,185.539l-23.188,7.335,5.534,20.8,5.709-1.3L740.893,197.7l17.83-6.035Z" transform="translate(-585.517 -30.399)"/><path class="z" d="M765.726,197.851l6.588,13.184-18.357,3.807-.966-4.364,13.438-3.25-2.986-8.356Z" transform="translate(-590.501 -33.426)"/><path class="z" d="M779.185,137.77l-18.428,9.257,6.386,13.5,6.477-3.761-3.375-7.232,5.839-2.411,4.2,13.211,4.835-3.182Z" transform="translate(-592.41 -18.653)"/><path class="z" d="M784.651,171.361l4.655-1.95,2.986,10.306-13.614,6.778-6.236-13.369,4.392-2.135,3.426,6.778,5.094-2.692Z" transform="translate(-595.284 -26.433)"/><path class="z" d="M801.176,131.491l-4.392,1.857,4.3,14.669,6.851-4.549Z" transform="translate(-601.269 -17.109)"/><path class="z" d="M812.293,154.885l5.358,12.07-10.189,5.571-3.689-16.155,4.128-1.857.79,1.95Z" transform="translate(-602.988 -22.77)"/><path class="z" d="M823.534,120.041l-8.7,4.271,8.871,18.29Z" transform="translate(-605.708 -14.293)"/><path class="z" d="M821.67,99.539l-11.243,5.571-2.811-10.491,14.932-5.849Z" transform="translate(-603.933 -6.604)"/><path class="z" d="M801.48,105.534l-10.716,6.035L784.089,84.83l9.837.557,2.284,11.42,3.162-1.671Z" transform="translate(-598.148 -5.635)"/><path class="z" d="M763.309,126.3l14.141-6.778-5.27-17.454-7.466,2.878,3.6,8.913-6.939,3.807Z" transform="translate(-592.563 -9.873)"/><path class="z" d="M756.235,125.923l-6.148,3.064-12.121-25.81,13.614-6.035,2.02,4.271-8.344,3.992,3.074,6.778,4.831-1.95Z" transform="translate(-586.806 -8.663)"/><path class="z" d="M759.047,93.04l3.162,7.892,8.432-3.528-2.723-8.634Z" transform="translate(-591.99 -6.604)"/><path class="z" d="M721.545,110.192l-11.067,5.292,2.635,8.727,11.77-7.706Z" transform="translate(-580.047 -11.872)"/><path class="z" d="M729.893,120.78l9.307,18.1-9.395,4.836-2.547-6.963,3.865-2.414-5.27-10.4Z" transform="translate(-583.828 -14.475)"/><path class="z" d="M725.385,145.9l-6.148-17.733-4.216,2.785,5.094,18.476Z" transform="translate(-581.164 -16.291)"/><path class="z" d="M700.2,142.378l-9.75,4.642-6.412-17.826,5.8-2.135,4.392,11.791,4.743-2.228Z" transform="translate(-573.546 -16.019)"/><path class="z" d="M700.849,133.088,698.038,122.5l-4.216,2.135,1.581,4.178,2.108-1.207,1.845,5.385Z" transform="translate(-575.951 -14.899)"/><path class="z" d="M667.732,84.218l4.392,11.791,8.871-3.621-3.074-8.913Z" transform="translate(-569.536 -5.302)"/><path class="z" d="M675.07,97.432l3.162,10.77L708.71,93.811,703.791,83.6l-8.608.557L697.906,90l-13.263,6.685-1.581-3.435Z" transform="translate(-571.34 -5.332)"/><path class="z" d="M671.776,134.877,678.5,153.12l-10.277,4.735-1.186-7.1,5.27-1.81L667.955,137.1Z" transform="translate(-569.364 -17.941)"/><path class="z" d="M660.1,138.939l-17.523,7.66,6.456,19.358,10.672-5.71-1.713-6.963-6.456,2.785-1.449-5.431,12.253-5.849Z" transform="translate(-563.35 -18.94)"/><path class="z" d="M663.983,180.861l-9.354,4.178,4.875,14.623,6.324-.975-3.821-9.888,5.4-2.228Z" transform="translate(-566.314 -29.249)"/><path class="z" d="M672.99,192.311l4.348,8.356-6.192.7-1.318-8.356Z" transform="translate(-570.052 -32.064)"/><path class="z" d="M698.132,212.131l19.631-2.646,6.192,23.4-7.51-.418-4.084-15.041-5.138.279,1.845,4.178-5.4.279Z" transform="translate(-577.011 -36.287)"/><path class="z" d="M707.566,230.354l6.456.7,3.03,8.217-5.929-.557Z" transform="translate(-579.331 -41.419)"/><path class="z" d="M682.413,214.472,673.323,216l2.5,5.988,3.294-.418,3.821,8.077,7.115-.975Z" transform="translate(-570.911 -37.513)"/><path class="z" d="M688,236.542l6.061-.278,2.372,4.6L688,240.023Z" transform="translate(-574.519 -42.872)"/><path class="z" d="M632.091,222.055l16.205-2.228,5.4,16.572-6.719-.557-2.767-9.888-3.952.279,4.084,9.47h-5.007Z" transform="translate(-560.772 -38.83)"/><path class="z" d="M586.976,228.979l13.439-1.95,3.03,7.8-17.128,1.532Z" transform="translate(-549.517 -40.601)"/><path class="z" d="M609.728,226.206l8.168-1.393,6.719,13.091-7.378-.139-1.713-4.317-4.084.279Z" transform="translate(-555.273 -40.056)"/><path class="z" d="M603.015,210.239l5.665-2.785,2.767,4.456-10.8,1.253Z" transform="translate(-553.039 -35.788)"/><path class="z" d="M622.482,199.277l15.283-7.52,4.479,12.255-5.276.79-2.892-7.2-5.138,1.532,2.92,6.43-6.346.951Z" transform="translate(-558.409 -31.928)"/><path class="z" d="M621.434,159.272l7.115-3.342,4.216,11.141-6.324,2.785-3.03-8.217-1.976.557Z" transform="translate(-558.152 -23.118)"/><path class="z" d="M629.3,171.521l-12.78,5.571L612.3,165.533l-7.115,2.507,8.827,16.294,17.128-8.5Z" transform="translate(-554.156 -25.48)"/><path class="z" d="M585.793,174.228l5.929-2.785,9.881,18.94-14.888,6.545-.659-6.963,6.324-3.064Z" transform="translate(-549.388 -26.933)"/><path class="z" d="M581.05,88.523l13.438,27.435-8.959,5.014-7.773-23.814Z" transform="translate(-547.412 -6.543)"/><path class="z" d="M596.41,127.859l7.51,14.762-23.979,11.7-.264-8.217,12.911-6.963-2.24-9.052Z" transform="translate(-547.884 -16.216)"/><path class="z" d="M609.379,111.556l11.067,20.89,19.235-9.052-3.162-9.192-14.1,5.988-3.294-7.381,5.138-2.507-2.767-6.267Z" transform="translate(-555.187 -10.358)"/><path class="z" d="M644.052,109.6l2.24,8.913,12.385-5.571L650.112,87.6,629.3,99.855l1.713,3.342,15.151-6.545,2.9,10.027Z" transform="translate(-560.085 -6.316)"/><path class="z" d="M612.1,91.1l-11.2,6.824-6.719-13.648H609.2Z" transform="translate(-551.45 -5.499)"/><path class="z" d="M786.535,198.055,817.013,183.2l.088,8.82-22.661,7.335,1.142,2.321,15.2-3.621v4.085L790.4,206.411Z" transform="translate(-598.749 -29.824)"/><path class="z" d="M819.764,218.042l-22.4,4.364,6.763,14.2,8.783-.371-3.162-9.749,10.276-1.671Z" transform="translate(-601.412 -38.391)"/><path class="z" d="M775.151,226.537l5.27,11.7-12.209-.093-1.493-4.549-17.655,2.6.79,2.042-5.358-.093-1.757-5.756Z" transform="translate(-587.98 -40.48)"/></g></g></g><path class="j" d="M741.073,175.109c-2.617-1.226-8.656-1.461-11.38,2.314-2.581,3.574-3.86,7.629.205,16.32l17.142-11.368S743.806,176.39,741.073,175.109Z" transform="translate(-65.129 -32.539)"/><path class="j" d="M735.234,182.241c4.286,1.137,8.364-.214,9.108-3.019a3.636,3.636,0,0,0-.008-1.722,8.923,8.923,0,0,0-2.707-2.391c-2.617-1.226-8.656-1.461-11.38,2.314-.252.348-.486.7-.709,1.065A9.811,9.811,0,0,0,735.234,182.241Z" transform="translate(-65.682 -32.539)"/><path class="aa" d="M747.9,163.5c-5.52.414-12.682,11.151-15.305,25.364l19.9-15.524S756.642,162.842,747.9,163.5Z" transform="translate(-66.433 -29.874)"/><path class="ab" d="M678.933,211.813c-.892-1.09-12.787-2.676-14.472-2.082s-2.478,11.6-2.478,11.6l4.362-.1s-.2-8.227.892-8.524,8.524-.1,9.218.892S677.942,224,677.942,224l4.163.694C681.312,219.247,679.825,212.9,678.933,211.813Z" transform="translate(-49.071 -41.218)"/><path class="ab" d="M628.616,238.251c3.879-7.218,10.932-14.662,25.447-15.79s28.028,9.023,28.581,10.827c0,0,41.976,71.959-10.653,76.245S628.616,238.251,628.616,238.251Z" transform="translate(-40.712 -44.358)"/><path class="h" d="M661.051,166.284c-6.393-4.041-19.174.225-19.174.225a40.921,40.921,0,0,0,2.071,23.256l21.388,16.671,6.507-23.392S668.246,170.832,661.051,166.284Z" transform="translate(-43.927 -30.139)"/><path class="ac" d="M669.146,179.833c-5.049.044-7.508,2.94-16.415,1.7-3.255-.454-8.567,4.384-11.039,3.008a40.7,40.7,0,0,0,2.411,8.987L665.491,210.2,672,186.8A46.565,46.565,0,0,0,669.146,179.833Z" transform="translate(-44.081 -33.898)"/><path class="ad" d="M585.763,290.034c2.369-10.32,19.1-45.332,32.989-49.886s-8.074,61.582-8.074,61.582Z" transform="translate(-30.329 -48.674)"/><path class="ae" d="M613.011,301.73s21.96-66.137,8.074-61.582a10.277,10.277,0,0,0-1.244.51c-9.674,13.153-12.562,44.792-24.588,57.479Z" transform="translate(-32.662 -48.674)"/><path class="ab" d="M657.835,338.71h-40.6s.338,39.25.676,54.815,24.7,105.231,39.25,137.713h1.015Z" transform="translate(-38.067 -72.965)"/><path class="af" d="M633.761,352.576l24.01,178.663h.4l-.339-192.529h-40.6s.045,5.237.118,12.632Z" transform="translate(-38.067 -72.965)"/><path class="ab" d="M685.154,338.71H633.385s.33,24.71,1.262,42.282c.212,3.994,10.518,6.267,10.581,9.15.339,15.565,24.7,108.615,39.25,141.1h1.015C688.015,456.155,689.526,385.262,685.154,338.71Z" transform="translate(-42.039 -72.965)"/><path class="af" d="M681.221,338.71H629.452s-7.721,2.362-12.063,12.632L668.7,353.26c3.993,42.52,12.629,109.483,12.174,177.979h.685C684.082,456.155,685.593,385.262,681.221,338.71Z" transform="translate(-38.105 -72.965)"/><path class="h" d="M765.262,207.753a42.217,42.217,0,0,0-2.39-12.859,22.933,22.933,0,0,0-7.674-10.579,2.379,2.379,0,0,1-.725-.689,2.329,2.329,0,0,1-.234-.934,14.716,14.716,0,0,0-.709-4.208,7.107,7.107,0,0,0-2.86-3.188,12.064,12.064,0,0,0-10.718-.7,23.846,23.846,0,0,0-8.858,6.643c-2.092,2.332-4.031,5.089-4.215,8.331a4.5,4.5,0,0,1-.132,1.112,3.39,3.39,0,0,1-1.814,1.688c-6.258,3.523-10.506,10.09-12.212,17.2-1.68,7-1.041,14.437.891,21.329.511,1.823,1.212,3.755,2.763,4.844a7.566,7.566,0,0,0,3.022,1.09,26.591,26.591,0,0,0,20.377-4.586c1.129-.829,2.3-2.251,1.619-3.517l3.737,1.909a7.6,7.6,0,0,0,7.431.673,18.567,18.567,0,0,0,6.2-4.708,25.037,25.037,0,0,0,4.657-6.281C765.244,216.512,765.471,212.068,765.262,207.753Z" transform="translate(-61.309 -32.383)"/><path class="t" d="M763.815,201.664c-.012.018-.02.037-.032.055-5.176,7.636-16.829,8.773-26.028,2.538a21.536,21.536,0,0,1-9.629-15.091,10.289,10.289,0,0,0-1.246,4.213,4.5,4.5,0,0,1-.132,1.112,3.39,3.39,0,0,1-1.814,1.688c-6.258,3.523-10.506,10.09-12.212,17.2-1.68,7-1.041,14.437.891,21.329.511,1.823,1.212,3.755,2.763,4.844a7.566,7.566,0,0,0,3.022,1.09,26.591,26.591,0,0,0,20.377-4.586c1.13-.829,2.3-2.251,1.619-3.517l3.737,1.909a7.6,7.6,0,0,0,7.431.673,18.567,18.567,0,0,0,6.2-4.708,25.037,25.037,0,0,0,4.657-6.281c1.829-3.807,2.056-8.251,1.848-12.566A46.655,46.655,0,0,0,763.815,201.664Z" transform="translate(-61.309 -36.192)"/><path class="s" d="M791.5,281.759c-1.165-8.034-23.677-37.009-27.883-37.7-4.317-.707-2.965,8.382-.576,12.594,2.482,4.375,21.635,26.1,23.591,27.094S791.5,281.759,791.5,281.759Z" transform="translate(-73.37 -49.682)"/><path class="ag" d="M761.011,248.541a2.5,2.5,0,0,0-.268-.007,18.835,18.835,0,0,0,2.1,9.472c2.481,4.375,21.649,26.733,23.607,27.724a2.383,2.383,0,0,0,2.261-.36C786.254,276.311,765.077,249.206,761.011,248.541Z" transform="translate(-73.346 -50.791)"/><path class="ah" d="M762.622,243.466a7.92,7.92,0,0,0-8.833-1.319l-.581.276c-4.511,6.316-7.218,76.921-7.218,76.921,28.648,5.188,45.341-.9,45.341-.9C790.669,299.461,776.373,256.467,762.622,243.466Zm4.547,42.972a30.536,30.536,0,0,1-17.806-1.7c1.1-17.519,2.8-37.527,4.975-40.576l.513-.244a6.993,6.993,0,0,1,7.8,1.164c6.642,6.28,12.411,21.294,17.292,35.616C776.177,283.844,772.5,285.376,767.169,286.438Z" transform="translate(-69.728 -49.027)"/><path class="ai" d="M796.6,305.813c-2.8,3.532-5.124,11.142-5.794,20.115a61.829,61.829,0,0,0,.091,10.7,56.191,56.191,0,0,0,11.405-2.333C802.058,327.206,799.911,316.778,796.6,305.813Z" transform="translate(-80.703 -64.875)"/><path class="h" d="M753.553,525.8c4.371-20.361,34.791-141.048,30.025-171.039-1.925-12.112-15.057-39.123-15.057-39.123l-23.771-2.02s-15.84,31.92-16.124,45.068c-.137,6.326,24.054,168.191,24.054,168.191Z" transform="translate(-65.458 -66.794)"/><path class="aj" d="M769.209,371.082,755.966,369l10.7,10.425-7.007,156.9.8.261,9.651-156.9L782.663,369Z" transform="translate(-72.181 -80.412)"/><path class="aj" d="M753.269,331.383l24.468-8.907-3.349-8.49-19.2,5.555Z" transform="translate(-71.517 -66.885)"/><path class="aj" d="M741.819,363.6c.913-12.319,13.282-39.567,17.758-49.087l-15.649-1.679s-16.183,32.644-16.467,45.792c-.136,6.326,24.932,168.054,24.932,168.054l.874-1.076c.091-.425.2-.91.311-1.422C749.366,470.857,741.424,368.939,741.819,363.6Z" transform="translate(-65.171 -66.602)"/><path class="j" d="M745.16,272.9c7.623,18.961-2.144,38.836-2.144,38.836l31.277-3.677-12.627-35.638Z" transform="translate(-68.996 -56.665)"/><path class="l" d="M751.019,310.8c0-.015,0-.029,0-.044-.514-14.3,4.921-25.377,12.138-24.751a8.141,8.141,0,0,1,3.835,1.446l-5.323-15.025-16.507.479c7.623,18.961-2.144,38.836-2.144,38.836Z" transform="translate(-68.996 -56.665)"/><path class="j" d="M747.721,273.1c-2.031-4.963-8.893-26.1-8.893-26.774s8.8-10.827,10.6-10.377,7.957,5.971,9.762,7.325,11.448,23.516,11.9,25.546S747.721,273.1,747.721,273.1Z" transform="translate(-67.967 -47.694)"/><path class="l" d="M751.635,273.872c-2.046-4.7-8.052-22.539-10.054-28.866a19.652,19.652,0,0,0-2.753,3.554c0,.676,6.2,23.067,8.232,28.029,0,0,24.482-3.505,24.031-5.535a6.222,6.222,0,0,0-.185-.6C764.135,272.237,751.635,273.872,751.635,273.872Z" transform="translate(-67.967 -49.923)"/><path class="j" d="M716.367,297.363c-1.353-7.9,15.1-48.969,19.484-50.917s3.976,10.539,2.4,16.179-14.888,32.652-16.467,34.231S716.367,297.363,716.367,297.363Z" transform="translate(-62.424 -50.227)"/><path class="l" d="M720.861,292.289c-1.1-6.442,10.063-36.007,16.229-47.332a6.283,6.283,0,0,0-2.775,1.421c-3.107,3.655-19.3,42.774-17.948,50.669,0,0,3.835,1.072,5.414-.508a28.436,28.436,0,0,0,2.332-3.933A10.82,10.82,0,0,1,720.861,292.289Z" transform="translate(-62.424 -49.911)"/><path class="ak" d="M723.186,311.387c3.318-1.958,4.873-5.47,3.472-7.843s-5.226-2.709-8.544-.75-4.874,5.47-3.473,7.843S719.867,313.346,723.186,311.387Z" transform="translate(-61.892 -63.82)"/><path class="ak" d="M798.695,294.941c2.359-3.05,2.5-6.893.326-8.584s-5.858-.589-8.216,2.461-2.5,6.893-.326,8.584S796.337,297.991,798.695,294.941Z" transform="translate(-80.288 -59.896)"/><path class="al" d="M724.864,303.25c13.481,2.452,37.239,8.113,38.593,9.692s-41.957.676-44.664-1.128S719.9,302.348,724.864,303.25Z" transform="translate(-62.819 -64.227)"/><path class="am" d="M749.3,312.729c-14.9-1.685-26.684-5.74-26.309-9.058a1.482,1.482,0,0,1,.124-.357c-4.042.852-6.7,6.95-4.319,8.534s35.779,2.466,43.228,1.609A109.615,109.615,0,0,1,749.3,312.729Z" transform="translate(-62.819 -64.261)"/><path class="al" d="M786.912,291.984c-4.655,4.439-12.07,15.909-12.045,17.654s15.049-9.748,16.475-11.39C798.645,289.84,793.345,285.85,786.912,291.984Z" transform="translate(-76.828 -60.744)"/><path class="am" d="M794.313,289.546a20.792,20.792,0,0,1-3.181,6.166c-1.072,1.523-9.905,10.2-14.437,13.86,3.815-1.8,14.327-9.455,15.493-10.8C796.322,294.015,796.287,290.549,794.313,289.546Z" transform="translate(-77.278 -60.876)"/><path class="an" d="M665.925,597.235H645.2s15.145-7.918,17.856-8.457S665.925,597.235,665.925,597.235Z" transform="translate(-44.944 -134.449)"/><path class="an" d="M696.711,597.235h20.144s-13.381-7.918-15.924-8.457S696.711,597.235,696.711,597.235Z" transform="translate(-57.61 -134.449)"/><path class="an" d="M758.356,597.235H737.632s15.145-7.918,17.855-8.457S758.356,597.235,758.356,597.235Z" transform="translate(-67.672 -134.449)"/><path class="an" d="M757.972,597.235h20.144s-13.381-7.918-15.924-8.457S757.972,597.235,757.972,597.235Z" transform="translate(-72.674 -134.449)"/><path class="ad" d="M615.922,316.872c-3.214-2.706-4.06-11.335-2.706-18.779s.688-44.622,13.314-60.518c2.369-3.215,18.153-9.693,22.721-9.693s28.084,7.445,31.806,10.828,2.616,77.521-.611,77.325C649.759,314.165,615.922,316.872,615.922,316.872Z" transform="translate(-36.927 -45.713)"/><path class="ao" d="M654.272,227.882c-4,0-16.595,4.966-21.259,8.359,4.131,3.382,14.3,5.313,26.054,4.529,8.742-.584,16.414-2.541,21.28-5.108C671.972,232.127,657.721,227.882,654.272,227.882Z" transform="translate(-41.947 -45.713)"/><path class="ao" d="M681.058,240.123c-1.713-1.558-15.329-11.717-16.912-3.007-4.118,22.672-17.508,60.528-35.517,58.835a25.306,25.306,0,0,1-13.9-5.8c-.69,4.4-1.228,7.793-1.51,9.35-1.354,7.444-.508,16.072,2.706,18.779,0,0,33.837-2.707,64.524-.837C683.674,317.645,684.78,243.507,681.058,240.123Z" transform="translate(-36.927 -47.126)"/><path class="ae" d="M614.449,338.082a7.376,7.376,0,0,0,1.929,2.939s19.932-1.592,43.072-1.489c-3.533-4.047-15.349-12.431-24.718-13.334C623.087,325.077,617.011,333.124,614.449,338.082Z" transform="translate(-37.383 -69.862)"/><path class="ab" d="M677.741,283.758c-4.126-26.434,3.854-49.029,5.123-50.5s7.819-.947,9.964.98c.808.727,4.31,4.664,3.965,6.146C694.37,250.779,677.741,283.758,677.741,283.758Z" transform="translate(-52.657 -46.827)"/><path class="ap" d="M680.308,242.948a105.694,105.694,0,0,0-3.471,21.385,28.633,28.633,0,0,0,6.341-.639,29.813,29.813,0,0,0,2.906-.789c2.522-7.373,4.925-14.734,6.049-19.126A23.854,23.854,0,0,0,680.308,242.948Z" transform="translate(-52.723 -49.327)"/><path class="ab" d="M615.379,281.351c.27-23.1,9.693-42.676,12.061-44.875,1.531-1.422,7.615-3.59,6.622-1.894C632.29,237.6,615.379,281.351,615.379,281.351Z" transform="translate(-37.611 -47.208)"/><path class="ap" d="M627.328,239.057l-.015,0c-2.08,3.257-5.815,11.492-8.366,22.28a22.933,22.933,0,0,0,3.225.966c.627.14,1.249.244,1.867.329,3.106-7.914,6.451-16.357,8.638-21.646A22.405,22.405,0,0,0,627.328,239.057Z" transform="translate(-38.489 -48.46)"/><path class="ad" d="M673.21,292.233c.092-11.2,13.184-54.029,18.859-52.582,4.305,1.1,7.518,4.985,8.674,11.9s1.939,48.311-2.648,51.849S673.147,299.791,673.21,292.233Z" transform="translate(-51.831 -48.598)"/><path class="ae" d="M700.743,253.043a19.243,19.243,0,0,0-2.658-7.356c.314,5.064,1.716,22.128.856,28.36-2.45,17.751-5.155,21.015-10.9,20.221-3.52-.486-11.44-7.029-12.183-15.55-1.591,6.355-2.619,11.9-2.645,15.007-.063,7.558,20.3,14.7,24.885,11.165S701.9,259.958,700.743,253.043Z" transform="translate(-51.831 -50.091)"/><path class="ad" d="M673.584,320.424c-14.275-4.667-35.578-18.574-36.736-20.35s1.11-14.891,3.977-15.118,30.408,3.761,35.156,6.013c8.19,3.885,16.2,14.025,13.814,21.8C687.5,320.246,677.764,321.791,673.584,320.424Z" transform="translate(-42.814 -59.745)"/><path class="ae" d="M686.274,301.876c-3.334,3.222-8.4,4.571-11.3,4.19-12.538-1.646-31.179-8.812-37.631-11.95-.793,3.551-1.08,7.319-.5,8.213,1.158,1.775,22.462,15.682,36.736,20.35,4.181,1.366,13.809-.068,16.493-7.414C691.747,310.7,690.038,305.348,686.274,301.876Z" transform="translate(-42.814 -61.999)"/><path class="ad" d="M586.171,300.991c4.246-9.859,19.932-12.741,25.862-8.377,4.879,3.59,1.841,18.823-5.193,25.082C600.079,323.714,580.837,313.377,586.171,300.991Z" transform="translate(-30.202 -61.143)"/><path class="ae" d="M612.365,292.741a10.047,10.047,0,0,0-3.8-1.587c-3.231,6.343-9.518,13.7-16.012,17.373a11.366,11.366,0,0,1-5.95,1.409c3.559,7.767,15.532,12.374,20.574,7.887C614.206,311.565,617.244,296.332,612.365,292.741Z" transform="translate(-30.534 -61.271)"/><path class="aq" d="M646.379,223.736l1.8-15.251,16.071-12.134,5.142,26.536C656.976,227.671,648.668,227.689,646.379,223.736Z" transform="translate(-45.234 -37.959)"/><path class="ar" d="M642.74,231.137l3.427-6.782s1.14,5.993,4.694,6.669,16.749-8.684,16.749-8.684l4.423,8.046-15.927,6.673-5.583-3.553-7.275,2.2Z" transform="translate(-44.339 -44.35)"/><path class="al" d="M642.432,213.644c-1.9-2.261-.318-27.658,1.3-30a10.712,10.712,0,0,1,8.953-4.232c3.527.323,9.852,4.469,10.667,6.3s-3.336,25.43-3.635,26.589S644.231,215.783,642.432,213.644Z" transform="translate(-44.05 -33.786)"/><g transform="translate(681.405 41.978)"><circle class="l" cx="15.565" cy="15.565" r="15.565" transform="matrix(0.987, -0.161, 0.161, 0.987, 0, 5.019)"/><path class="j" d="M756.84,71.658c2.863,9.981,8.5,21.14,14.831,32.709,6.345-12.045,11.838-23.487,14.832-32.709Z" transform="translate(-753.801 -49.276)"/><circle class="as" cx="7.923" cy="7.923" r="7.923" transform="translate(9.947 9.947)"/></g><path class="af" d="M645.8,403.93l-10.015-6.365,7.106,2.03,9.3-4.06Z" transform="translate(-42.629 -86.938)"/><rect class="af" width="6.015" height="7.018" transform="translate(590.468 276.053)"/><rect class="at" width="6.115" height="4.411" transform="translate(588.563 276.554)"/><path class="aj" d="M776.21,324.6l-8.288,1.238,1.038,6.509,8.288-1.238Z" transform="translate(-75.121 -69.496)"/><path class="au" d="M776.864,325.3l-6.034.9.756,4.738,6.034-.9Z" transform="translate(-75.836 -69.667)"/><path class="l" d="M758.209,242.074a2.534,2.534,0,0,0-.53-.015c-2.554-2.118-6.8-5.743-8.249-6.1-1.8-.451-10.6,9.7-10.6,10.377a3.48,3.48,0,0,0,.113.488c-.032.051-.066.112-.1.164a48.661,48.661,0,0,0,8.526.274c5.719-.295,10.754-1.453,13.962-3.013A8.4,8.4,0,0,0,758.209,242.074Z" transform="translate(-67.967 -47.694)"/><path class="av" d="M749.715,241.343c4.249,1.219,7.957,1.29,8.282.159a.721.721,0,0,0-.05-.476c-.765-.635-1.575-1.3-2.381-1.94a24.346,24.346,0,0,0-4.676-1.841c-.44-.126-.868-.232-1.292-.333a30.469,30.469,0,0,0-3.462,3.126A26.6,26.6,0,0,0,749.715,241.343Z" transform="translate(-69.764 -47.933)"/><path class="aq" d="M746.067,233.484c0-5.583-3.259-21.353-3.259-21.353l7.488,1.389,4.347,20.859A29.233,29.233,0,0,1,746.067,233.484Z" transform="translate(-68.945 -41.84)"/><path class="al" d="M757.509,220.922c-13.872-2.369-15.378-16.048-15.547-18.755s.508-16.58,7.613-17.6c4.7-.671,10.758,9.029,12.35,18.1C763.421,211.2,757.509,220.922,757.509,220.922Z" transform="translate(-68.732 -35.055)"/><path class="h" d="M752.438,184.018a4.6,4.6,0,0,0-3.059-2.512c-4.117-1.31-8.8.727-11.436,4.154s-3.468,7.954-3.261,12.27l2.476,6.158a3.23,3.23,0,0,0,5.826.312l.06-.1a28.952,28.952,0,0,1,3.586-4.187,23.872,23.872,0,0,0,5.988-13.71A5.428,5.428,0,0,0,752.438,184.018Z" transform="translate(-66.94 -34.211)"/><path class="al" d="M741.9,208.433c-1.942-2.124-4.476-2.967-5.661-1.885s-.571,3.683,1.371,5.807,4.476,2.967,5.66,1.884S743.837,210.556,741.9,208.433Z" transform="translate(-67.181 -40.351)"/><path class="aq" d="M741.913,210.145c-1.265-1.245-2.838-1.7-3.514-1.015s-.2,2.249,1.067,3.495,2.839,1.7,3.515,1.016S743.179,211.391,741.913,210.145Z" transform="translate(-67.786 -41.023)"/><path class="al" d="M743.6,212.779a1.306,1.306,0,1,0,.381,2.1A1.563,1.563,0,0,0,743.6,212.779Z" transform="translate(-68.554 -41.844)"/><path class="ac" d="M670.786,183.842c-5.287-5.683-6.807,4.957-7.27,14.935l3.569,1.124,3.7-3.635.661-10.177Z" transform="translate(-49.448 -34.493)"/><path class="al" d="M665.928,203.406a6.693,6.693,0,0,1,2.815-5.976c2.448-1.618,4.481-.431,5.282,2.283,1.109,3.757-7.972,6.085-7.972,6.085Z" transform="translate(-50.038 -38.044)"/><path class="aq" d="M667.939,203.737a3.367,3.367,0,0,1,1.416-3.007c1.232-.814,2.254-.216,2.657,1.149.558,1.891-4.01,3.061-4.01,3.061Z" transform="translate(-50.534 -38.946)"/><path class="al" d="M667.357,205.045a2.47,2.47,0,0,1,.822-2.3c.841-.68,1.63-.316,2.02.653.541,1.342-2.711,2.516-2.711,2.516Z" transform="translate(-50.385 -39.447)"/><path class="h" d="M579.36,532.151a2,2,0,0,0-2.24-1.975l-54.983,6.588a2,2,0,0,0-1.754,2.194l2.087,20.163,57.038-4.674Z" transform="translate(-14.25 -120.041)"/><g transform="translate(506.122 410.12)"><path class="aw" d="M576.961,534.643a102.59,102.59,0,0,1,.124,21.138l16.257-1.332-.148-22.3a2,2,0,0,0-2.24-1.975l-14.32,1.716C576.752,532.8,576.863,533.718,576.961,534.643Z" transform="translate(-534.206 -530.162)"/><path class="aw" d="M526.652,540.465q-.119-1.121-.212-2.231l-4.3.515a2,2,0,0,0-1.754,2.194l2.087,20.163,8.225-.674A103.272,103.272,0,0,1,526.652,540.465Z" transform="translate(-520.372 -532.147)"/></g><path class="aw" d="M580.477,560.337l-58.483,5.055v2.081l58.483-5.055Z" transform="translate(-14.648 -127.461)"/><path class="ar" d="M616.23,289.793c-4.486-3.325-11.677-.765-13.806,2.108s-.219,7.9,4.267,11.223,9.849,3.691,11.979.817S620.716,293.118,616.23,289.793Z" transform="translate(-34.212 -60.55)"/><path class="ar" d="M642.211,304.62c-5.419-2.246-7.425-8.159-7.557-9.481s3.2-11.8,5.178-12.591,11.367,2.115,11.367,2.115C649.816,293.214,647.795,301.013,642.211,304.62Z" transform="translate(-42.35 -59.121)"/><rect class="v" width="2.908" height="32.777" rx="0.604" transform="translate(742.731 114.093)"/><path class="am" d="M604.666,290.773c-.619-3.167-3.13-6.664-2.424-7.621s2.353-1.63,3.335-1.069,3.581,6.831,3.647,8.523S604.666,290.773,604.666,290.773Z" transform="translate(-34.351 -58.99)"/><path class="ax" d="M599.6,273.723,605.449,269a3.415,3.415,0,0,1,4.21.229L623.1,280.867a2.222,2.222,0,0,1,.127,3.525l-5.853,4.725a3.417,3.417,0,0,1-4.21-.229l-13.443-11.64A2.222,2.222,0,0,1,599.6,273.723Z" transform="translate(-33.531 -55.67)"/><path class="ay" d="M597.914,275.014l5.853-4.725a3.415,3.415,0,0,1,4.21.229l13.443,11.64a2.221,2.221,0,0,1,.127,3.525l-5.853,4.724a3.415,3.415,0,0,1-4.21-.229l-13.443-11.639A2.222,2.222,0,0,1,597.914,275.014Z" transform="translate(-33.118 -55.988)"/><path class="am" d="M620.665,294.766c2.181-2.378,3.5-6.476,4.692-6.476s2.709.925,2.841,2.048-3.37,6.939-4.691,8S620.665,294.766,620.665,294.766Z" transform="translate(-38.911 -60.567)"/><path class="am" d="M615.232,290.647c2.181-2.379,3.5-6.476,4.692-6.476s2.709.925,2.841,2.049-3.37,6.939-4.692,8S615.232,290.647,615.232,290.647Z" transform="translate(-37.575 -59.554)"/><path class="am" d="M609.536,286.791c2.181-2.379,3.5-6.476,4.692-6.476s2.709.925,2.841,2.049-3.37,6.939-4.691,8S609.536,286.791,609.536,286.791Z" transform="translate(-36.174 -58.606)"/><g transform="translate(568.796 226.795)"><path class="am" d="M612.9,287.459c-4.427-1.729-7.7,2.507-9.242,6.007s7.239,10.421,9.763,10.4,6.611-6.295,6.914-7.185C621.1,294.45,615.706,288.552,612.9,287.459Z" transform="translate(-603.482 -287.059)"/></g><g transform="translate(691.264 244.557)"><path class="al" d="M768.74,313.69c2.829.7,6.092.421,6.66,1.365s-1.271,4.793-3.925,3.4a28.192,28.192,0,0,1-5.592-4.394Z" transform="translate(-765.883 -311.369)"/><path class="al" d="M770.237,312.612c3.17.1,8.331-2.5,8.717-1.915.367.553-5.5,4.024-6.5,3.9C771.405,314.467,768.959,312.573,770.237,312.612Z" transform="translate(-766.865 -310.612)"/><path class="al" d="M772.982,313.323c4.535,2.641,9.144,1.426,9.537,1.813s-3.13,1.88-6.129,1.022S772.982,313.323,772.982,313.323Z" transform="translate(-767.629 -311.279)"/><path class="al" d="M771.832,314.862c4.217,3.076,9.683,2.563,10.1,3.078s-3.838,1.21-6.708-.061A6.56,6.56,0,0,1,771.832,314.862Z" transform="translate(-767.346 -311.657)"/><path class="al" d="M769.975,316.67c4.679,3.182,8.923,2.937,9.149,3.28s-2.749.858-5.3-.16A7.076,7.076,0,0,1,769.975,316.67Z" transform="translate(-766.889 -312.102)"/></g><g transform="translate(690.022 245.288)"><path class="al" d="M775.923,312.292c-2.255,1.686-5.27,2.633-5.414,3.714s2.963,3.962,4.8,1.7a27.413,27.413,0,0,0,3.307-6.12Z" transform="translate(-765.778 -311.582)"/><path class="al" d="M774.147,312.361c-2.789,1.256-8.378.759-8.5,1.439-.116.646,6.433,1.7,7.284,1.21C773.813,314.506,775.271,311.855,774.147,312.361Z" transform="translate(-764.583 -311.758)"/><path class="al" d="M772.052,313.4c-3.034,4.111-7.606,4.685-7.807,5.187s3.507.585,5.853-1.311S772.052,313.4,772.052,313.4Z" transform="translate(-764.237 -312.03)"/><path class="al" d="M773.66,314.4c-2.584,4.4-7.653,5.934-7.825,6.561s3.883-.294,5.955-2.526A6.445,6.445,0,0,0,773.66,314.4Z" transform="translate(-764.628 -312.275)"/><path class="al" d="M776.307,315.39c-2.956,4.663-6.831,6-6.9,6.4-.068.384,2.777-.218,4.66-2.1A6.919,6.919,0,0,0,776.307,315.39Z" transform="translate(-765.507 -312.518)"/></g><g transform="translate(583.063 217.358)"><path class="al" d="M624.875,275.5c3.793-2.973,12.252,1.672,15.39,4.811s-2.839,12.588-5.449,13.255-5.514-.126-6.636-2.815-4.153-1.388-4.859-2.211C621.554,286.48,622.475,277.38,624.875,275.5Z" transform="translate(-622.401 -274.545)"/></g><path class="al" d="M623.912,292.076c-3.213-.292-7.27,1.137-7.992.193s-.91-2.711-.1-3.5,7.557-1.523,9.2-1.113S623.912,292.076,623.912,292.076Z" transform="translate(-37.589 -60.383)"/><path class="al" d="M623.105,280.651c-2.009-.409-10.261.328-11.254,1.112s-.763,2.551.121,3.5,5.846-.485,9.778-.192C621.75,285.066,625.114,281.06,623.105,280.651Z" transform="translate(-36.584 -58.66)"/><path class="al" d="M626.849,274.456c-1.913-.738-10.174-1.378-11.283-.769s-1.176,2.39-.461,3.467,5.846.491,9.674,1.431C624.78,278.585,628.762,275.193,626.849,274.456Z" transform="translate(-37.429 -56.916)"/><circle class="g" cx="14.209" cy="14.209" r="14.209" transform="translate(516.105 263.632) rotate(-45)"/><g transform="translate(597.088 152.194)"><path class="az" d="M655.25,198.2c.2-1.587.965-2.74,1.708-2.576s1.184,1.584.984,3.17-.964,2.74-1.708,2.576S655.05,199.786,655.25,198.2Z" transform="translate(-644.492 -189.971)"/><path class="h" d="M655.69,188.187l4.907.995a.865.865,0,0,1,.618,1l-.269,1.771a.77.77,0,0,1-.877.7l-4.907-.994a.866.866,0,0,1-.618-1l.27-1.771A.769.769,0,0,1,655.69,188.187Z" transform="translate(-644.327 -188.143)"/><path class="az" d="M643.787,197.816c.17-1.587.9-2.718,1.636-2.524s1.191,1.637,1.02,3.225-.9,2.718-1.637,2.525S643.617,199.4,643.787,197.816Z" transform="translate(-641.676 -189.888)"/><path class="h" d="M641.655,189.183l4.79-1.035a.7.7,0,0,1,.808.7l.163,1.789a.939.939,0,0,1-.651,1.017l-4.791,1.035a.7.7,0,0,1-.808-.7L641,190.2A.94.94,0,0,1,641.655,189.183Z" transform="translate(-640.999 -188.133)"/><path class="aq" d="M650.7,200.321c-2.115,3.593-3.1,5.932-2.336,7.269a3.136,3.136,0,0,0,2.653,1.281l0,.1s-3.046.47-3.9-.977C646.362,206.738,647.8,204.325,650.7,200.321Z" transform="translate(-642.454 -191.13)"/><g transform="translate(5.085 18.436)"><path class="aq" d="M655.333,212.58l.531,1.119c-.123.085-3.071,2.08-8.121,1.379l.167-.544A9.414,9.414,0,0,0,655.333,212.58Z" transform="translate(-647.743 -212.58)"/></g><path class="aq" d="M650.542,217.846c-.02.4.689.723,1.581.715s1.631-.342,1.65-.745-.723.007-1.615.015S650.561,217.444,650.542,217.846Z" transform="translate(-643.346 -195.388)"/></g><g transform="translate(677.819 160.88)"><path class="ba" d="M755.21,207.913c-.1-1.477-.94-2.611-1.87-2.531s-1.606,1.351-1.5,2.835.949,2.614,1.88,2.525S755.315,209.389,755.21,207.913Z" transform="translate(-748.982 -201.06)"/><path class="ba" d="M765.646,207.366c-.1-1.215-.823-2.167-1.624-2.126s-1.376,1.066-1.277,2.289.831,2.17,1.632,2.121S765.744,208.58,765.646,207.366Z" transform="translate(-751.663 -201.025)"/><path class="h" d="M748.482,205.4l-.213-.285a1.141,1.141,0,0,1,.284-1.606l4.382-3.168a1.208,1.208,0,0,1,1.676.211l.131.176Z" transform="translate(-748.054 -199.761)"/><path class="aq" d="M759.858,210.016s-.136.3-.309.767c1.458,2.021,3.275,5.511-.451,5.426.037.092.05.195.094.282C765.6,217.528,761.031,211.249,759.858,210.016Z" transform="translate(-750.769 -202.2)"/><path class="bb" d="M762.573,220.952c-.032.237-.062.474-.118.715-.6,2.584-2.684,4-4.359,3.574-1.545-.394-2.141-2.164-1.81-4.534Z" transform="translate(-750.056 -204.829)"/><path class="h" d="M762.445,201l.023-.182c.066-.532.607-1.333,1.075-1.14l3.857,1.589c.482.2.709,1.325.644,1.868l-.023.185Z" transform="translate(-751.592 -199.651)"/><path class="bc" d="M761.677,222.87a2.439,2.439,0,0,0,.4-.934,5.022,5.022,0,0,0,.078-.55l-5.423-.325c-.1.864.039,1.32.35,1.6Z" transform="translate(-750.181 -204.916)"/></g></g></g></svg>